<svg xmlns="http://www.w3.org/2000/svg" width="20.737" height="23.731" viewBox="0 0 20.737 23.731">
  <g id="Group_44646" data-name="Group 44646" transform="translate(-1121.079 -130.472)">
    <g id="excel-document-svgrepo-com" transform="translate(1121.079 130.472)">
      <path id="Path_19288" data-name="Path 19288" d="M1.92.006A1.882,1.882,0,0,0,.039,1.888V21.853A1.881,1.881,0,0,0,1.92,23.735H18.894a1.882,1.882,0,0,0,1.882-1.882V7.537L13.767.006H1.92Z" transform="translate(-0.039 -0.004)" fill="#fff" fill-rule="evenodd"/>
      <path id="Path_19290" data-name="Path 19290" d="M44.041,16.761v.371H39.295s-2.341-.467-2.272-2.487a2.174,2.174,0,0,0,2.226,2.116Z" transform="translate(-23.307 -9.214)" fill="#c9c9c9" fill-rule="evenodd"/>
      <path id="Path_19291" data-name="Path 19291" d="M37.049,0V5.4a2.143,2.143,0,0,0,2.264,2.147h4.747Z" transform="translate(-23.325)" fill="#fff" fill-rule="evenodd" opacity="0.5"/>
    </g>
    <path id="Path_19292" data-name="Path 19292" d="M107.28,106.715a3.343,3.343,0,0,0-2.392-.641,15.421,15.421,0,0,0-2.264.214,10.765,10.765,0,0,1-2.221-2.948,11.948,11.948,0,0,0,.726-3.46c0-.726-.256-1.88-1.282-1.88a.881.881,0,0,0-.726.427c-.427.769-.256,2.478.555,4.272a38.36,38.36,0,0,1-2.136,5c-2.264.94-3.759,1.965-3.887,2.777-.085.384.171,1.025,1.068,1.025,1.324,0,2.777-1.922,3.887-3.887a26.742,26.742,0,0,1,3.93-1.025,5.768,5.768,0,0,0,3.716,1.623C107.622,108.21,107.75,107.227,107.28,106.715Zm-7.946-8.159c.342-.513,1.111-.342,1.111.683a10.879,10.879,0,0,1-.641,3.076C99.036,100.52,99.036,99.111,99.335,98.555Zm-5.425,11.961c.128-.683,1.41-1.623,3.417-2.435-1.111,1.88-2.221,3.076-2.9,3.076A.523.523,0,0,1,93.909,110.516Zm8.415-4.186a24.52,24.52,0,0,0-3.546.94,19.351,19.351,0,0,0,1.538-3.588A13.969,13.969,0,0,0,102.325,106.33Zm.555.171a10.714,10.714,0,0,1,3.033-.085c1.239.256.812,1.751-.555,1.41A6.026,6.026,0,0,1,102.88,106.5Z" transform="translate(1030.435 38.811)" fill="red"/>
  </g>
</svg>
