<svg xmlns="http://www.w3.org/2000/svg" width="30" height="30" viewBox="0 0 30 30">
  <g id="Group_50200" data-name="Group 50200" transform="translate(2291.703 -2067.478)">
    <rect id="Rectangle_28902" data-name="Rectangle 28902" width="30" height="30" transform="translate(-2291.703 2067.478)" fill="none"/>
    <g id="Group_50199" data-name="Group 50199" transform="translate(-2322.725 2045.559)">
      <path id="Path_104194" data-name="Path 104194" d="M39.746,24.628a10.065,10.065,0,0,1,.542-1.213,1.738,1.738,0,0,1,1.559-.866c2.772,0,5.545,0,8.317,0a1.94,1.94,0,0,1,1.872,1.379c.075.215.127.438.2.691.736,0,1.451-.013,2.165,0a3.962,3.962,0,0,1,3.891,3.832q.053,9.533,0,19.067a3.926,3.926,0,0,1-3.768,3.737q-8.49.056-16.981,0a3.934,3.934,0,0,1-3.793-3.788q-.05-9.568,0-19.136a3.968,3.968,0,0,1,3.728-3.706C38.235,24.6,39,24.628,39.746,24.628Zm.018,1.986c-.514,0-1.043,0-1.573,0a2.169,2.169,0,0,0-2.465,2.468q0,8.84,0,17.679c0,1.727.772,2.509,2.486,2.51q7.832.005,15.663,0a2.166,2.166,0,0,0,2.453-2.477q0-5.858,0-11.717c0-2.034.01-4.067,0-6.1a2.134,2.134,0,0,0-1.892-2.336c-.727-.068-1.466-.013-2.182-.013-.549,1.726-1,2.057-2.752,2.057H42.569C40.761,28.684,40.34,28.379,39.764,26.614Zm2.2.036H50.08V24.606H41.963Z" transform="translate(0)" fill="#363b46"/>
      <path id="Path_104195" data-name="Path 104195" d="M80.679,124.506H66.987v-2.261H80.679Z" transform="translate(-27.819 -81.371)" fill="#363b46"/>
      <path id="Path_104196" data-name="Path 104196" d="M80.728,100.485V102.6H67v-2.115Z" transform="translate(-27.835 -63.602)" fill="#363b46"/>
      <path id="Path_104197" data-name="Path 104197" d="M76.123,78.2v2.178H67.038V78.2Z" transform="translate(-27.496 -45.416)" fill="#363b46"/>
      <path id="Path_104198" data-name="Path 104198" d="M124.542,80.365h-2.236v-2.2h2.236Z" transform="translate(-72.324 -45.388)" fill="#363b46"/>
    </g>
  </g>
</svg>
