<svg version="1.2" xmlns="http://www.w3.org/2000/svg" viewBox="0 0 108 127" width="17" height="20">
	<title>analytics-svg</title>
	<style>
		.s0 { fill: #383876 } 
	</style>
	<path id="Layer" fill-rule="evenodd" class="s0" d="m10.8 2h70.7q1.1 0 2.1 0.2 1 0.2 2 0.6 1 0.4 1.9 1 0.9 0.6 1.6 1.4l0.2 0.2q0.7 0.7 1.3 1.6 0.5 0.8 0.9 1.8 0.4 0.9 0.6 1.9 0.2 1.1 0.2 2.1v12.7h4.1c1.5 0 2.9 0.3 4.2 0.8 1.3 0.5 2.5 1.3 3.5 2.3 1 1 1.8 2.2 2.3 3.5 0.5 1.3 0.8 2.7 0.8 4.2v77.8c0 1.4-0.3 2.8-0.8 4.1-0.5 1.3-1.3 2.5-2.3 3.5-1 1-2.2 1.8-3.5 2.4-1.3 0.5-2.7 0.8-4.2 0.8h-68.5c-1.4 0-2.8-0.3-4.1-0.8-1.4-0.6-2.5-1.4-3.5-2.4-1-1-1.8-2.2-2.4-3.5-0.5-1.3-0.8-2.7-0.8-4.1v-5.2h-6.3q-1.1 0-2.1-0.2-1.1-0.2-2-0.6-1-0.4-1.9-1-0.9-0.6-1.6-1.3-0.8-0.8-1.4-1.7-0.6-0.9-1-1.8-0.4-1-0.6-2.1-0.2-1-0.2-2.1v-85.3c0-1.4 0.3-2.8 0.8-4.1 0.6-1.3 1.4-2.5 2.4-3.5 1-1 2.2-1.8 3.5-2.4 1.3-0.5 2.7-0.8 4.1-0.8zm81.6 29.4c0 0 0 60.2 0 60.3q0 0 0 0.1 0 0.1 0 0.1 0 1-0.1 1.9v4.3q0 1.1-0.3 2.2-0.2 1-0.7 2-0.4 1-1 1.8-0.6 0.9-1.4 1.7-0.7 0.7-1.6 1.3-0.8 0.6-1.8 1-0.9 0.4-1.9 0.6-1.1 0.2-2.1 0.2h-0.5q-1 0.1-2.1 0.1-1 0.1-2 0.1-1.1 0-2.1-0.1-1.1 0-2.1-0.1h-49.7v5.2q0 0.9 0.4 1.8 0.3 1 1 1.6 0.7 0.7 1.6 1.1 0.9 0.4 1.9 0.4h68.5q1 0 1.9-0.4 0.9-0.4 1.6-1 0.7-0.7 1-1.6 0.4-0.9 0.4-1.9v-77.8q0-1-0.4-1.9-0.3-0.9-1-1.6-0.7-0.7-1.6-1-0.9-0.4-1.9-0.4zm-86.4 17.4v49.3q0 0.5 0.1 1 0.1 0.5 0.3 0.9 0.1 0.4 0.4 0.8 0.3 0.4 0.6 0.8 0.4 0.3 0.8 0.6 0.4 0.3 0.8 0.4 0.4 0.2 0.9 0.3 0.5 0.1 1 0.1h70.3q0.5 0 0.9-0.1 0.4-0.1 0.9-0.3 0.4-0.1 0.8-0.4 0.4-0.2 0.7-0.5c1.3-1.1 1.8-3.5 2-7.5v-45.4zm41 26l-0.2-16.8v-1.2l1.2 0.1q0.5 0.1 1 0.1 0.5 0.1 1.1 0.2 0.5 0.1 1 0.2 0.5 0.1 1 0.2 0.5 0.1 1 0.3 0.5 0.2 0.9 0.3 0.5 0.2 1 0.4 0.4 0.2 0.9 0.5 2.3 1.1 4.2 2.8 1.9 1.7 3.3 3.8 1.4 2.2 2.2 4.6 0.8 2.4 0.9 4.9l0.1 1.2h-1.1l-17.4-0.6h-1zm-4.3 3l8.6 14.3q-1 0.5-2 1-1.1 0.4-2.2 0.7-1 0.2-2.1 0.4-1.1 0.1-2.3 0.1c-4.4 0.2-8.7-1.5-11.9-4.5-3.2-3-5.1-7.2-5.2-11.7 0-4.4 1.6-8.7 4.7-11.8 3.1-3.2 7.3-5 11.7-5.1zm38.8-69.8h-70.7q-1 0-1.9 0.4-0.9 0.4-1.6 1-0.7 0.7-1 1.6-0.4 0.9-0.4 1.9v30.1h80.4c0-0.3 0-30.7 0-31q-0.1-0.5-0.3-0.9-0.2-0.4-0.4-0.8-0.3-0.4-0.6-0.7l-0.1-0.2q-0.3-0.3-0.7-0.6-0.4-0.2-0.9-0.4-0.4-0.2-0.9-0.3-0.5-0.1-0.9-0.1zm-12.4 16.2c0.1 0 5 0 5 0q0.1 0.1 0.2 0.1 0 0.1 0.1 0.2 0 0.1 0 0.1c0 0.1 0 13.1 0 13.2q-0.1 0-0.1 0.1-0.1 0.1-0.2 0.1 0 0-0.1 0c0 0-4.9 0-5 0q-0.1 0-0.2-0.1 0-0.1-0.1-0.1 0-0.1 0-0.2c0 0 0-13 0-13.1q0.1-0.1 0.1-0.1 0.1-0.1 0.2-0.1 0.1-0.1 0.1-0.1zm-12.8-9.2c0 0 4.9 0 5 0q0.1 0.1 0.2 0.1 0 0.1 0.1 0.2 0 0.1 0 0.1c0 0.1 0 22.3 0 22.4q-0.1 0-0.1 0.1-0.1 0.1-0.2 0.1-0.1 0-0.1 0c-0.1 0-5 0-5.1 0q-0.1 0-0.1-0.1-0.1-0.1-0.1-0.1 0-0.1 0-0.2c0 0 0-22.2 0-22.3q0-0.1 0.1-0.2 0 0 0.1-0.1 0.1 0 0.2 0zm-38.5 3.3c0.1 0 4.9 0 5 0q0.1 0.1 0.1 0.1 0.1 0.1 0.1 0.2 0.1 0.1 0.1 0.1v18.9q0 0.1-0.1 0.2 0 0-0.1 0.1 0 0.1-0.1 0.1-0.1 0-0.2 0c-0.1 0-4.9 0-5 0q-0.1 0-0.2-0.1 0-0.1-0.1-0.1 0-0.1 0-0.2v-18.9c-0.1-0.2 0.2-0.4 0.5-0.4zm12.8-3.3c0 0 4.9 0 5 0q0.1 0.1 0.2 0.1 0 0.1 0.1 0.2 0 0.1 0 0.1c0 0.1 0 22.3 0 22.4q-0.1 0-0.1 0.1-0.1 0.1-0.2 0.1-0.1 0-0.1 0c-0.1 0-5 0-5.1 0q-0.1 0-0.1-0.1-0.1-0.1-0.1-0.1 0-0.1 0-0.2c0 0 0-22.2 0-22.3q0-0.1 0.1-0.2 0 0 0.1-0.1 0.1 0 0.2 0zm17.2 64.4l14.9 0.2q0 1.9-0.5 3.8-0.5 1.8-1.4 3.5-0.9 1.7-2.2 3.1-1.3 1.4-2.9 2.5zm-4.3-55.2h4.9q0 0 0.1 0.1 0.1 0 0.2 0.1 0 0 0.1 0.1 0 0.1 0 0.2c0 0.1 0 13 0 13.1q-0.1 0.1-0.1 0.1-0.1 0.1-0.2 0.1-0.1 0-0.1 0c-0.1 0-5 0-5.1 0q-0.1 0-0.1-0.1-0.1 0-0.1-0.1 0-0.1 0-0.2c0-0.1 0-13 0-13.1q0-0.1 0.1-0.1 0.1-0.1 0.1-0.1 0.1-0.1 0.2-0.1zm5.4 34.9l0.2 14.8 15.2 0.5q-0.3-2.2-1-4.2-0.8-2-2-3.7-1.3-1.8-2.9-3.2-1.6-1.4-3.5-2.4-0.4-0.2-0.8-0.4-0.4-0.1-0.9-0.3-0.4-0.2-0.8-0.3-0.4-0.1-0.8-0.3c-1-0.1-1.8-0.3-2.7-0.5z"/>
</svg>