<svg xmlns="http://www.w3.org/2000/svg" width="18.491" height="18.491" viewBox="0 0 18.491 18.491">
  <g id="Group_50218" data-name="Group 50218" transform="translate(1882 943)">
    <path id="Path_104235" data-name="Path 104235" d="M-1867.734-943a.453.453,0,0,1,.184.419c-.005,1.842,0,3.684,0,5.526a.833.833,0,0,1-.005.162.273.273,0,0,1-.288.246.273.273,0,0,1-.281-.254,1.108,1.108,0,0,1,0-.18q0-2.555,0-5.11v-.221h-10.979v.189q0,.867,0,1.733c0,.283-.1.379-.379.38h-1.921v15.024h9.916c.042,0,.084,0,.126,0,.161-.01.309.016.373.186s-.03.3-.169.392H-1882v-16l2.492-2.492Zm-13.231,2.3h1.264v-1.262Z" transform="translate(0)" fill="#405de6"/>
    <path id="Path_104236" data-name="Path 104236" d="M-1700.677-798.845c-.4-.109-.821-.186-1.21-.333a9.858,9.858,0,0,1-3.912-2.536,3.368,3.368,0,0,1-.483-.794.65.65,0,0,1,.054-.623q.53-.913,1.055-1.827a.792.792,0,0,1,.655-.388,3.537,3.537,0,0,1,1.485.232.374.374,0,0,0,.335-.032,4.037,4.037,0,0,0,1.98-2.836c.083-.387.121-.783.178-1.175a2.125,2.125,0,0,1,2.063-1.821,2.126,2.126,0,0,1,2.135,1.759,1.113,1.113,0,0,0,.035.118v.542c-.01.014-.026.027-.029.043a2.234,2.234,0,0,1-.967,1.481,8.886,8.886,0,0,0-1.024.878,3.874,3.874,0,0,0-1.188,2.759.515.515,0,0,0,.189.451,3.193,3.193,0,0,1,.88,1.106.843.843,0,0,1-.043.826c-.3.494-.592.991-.863,1.5a1.123,1.123,0,0,1-.783.672Zm.585-4.785a.053.053,0,0,0,.013-.022.875.875,0,0,0,.011-.089,4.22,4.22,0,0,1,.785-2.175,7.356,7.356,0,0,1,1.762-1.689,1.522,1.522,0,0,0,.531-1.8,1.555,1.555,0,0,0-1.6-.992,1.545,1.545,0,0,0-1.376,1.3c-.062.391-.094.788-.176,1.175a4.643,4.643,0,0,1-1.959,3.08.109.109,0,0,0-.033.035Zm-5.239.1a9.922,9.922,0,0,1,5.712,3.305c.2-.341.4-.708.619-1.068a.3.3,0,0,0,.016-.339,3.019,3.019,0,0,0-.345-.5,9.588,9.588,0,0,0-3.954-2.458,2.677,2.677,0,0,0-1.148-.183.342.342,0,0,0-.233.1C-1704.9-804.287-1705.119-803.9-1705.331-803.528Zm0,.634c-.042,0-.084,0-.126,0-.313.013-.375.1-.209.377a3.133,3.133,0,0,0,.47.611,9.748,9.748,0,0,0,3.933,2.327,4.321,4.321,0,0,0,.867.149,1.16,1.16,0,0,0,.358-.08,1.321,1.321,0,0,0-.107-.366,3.346,3.346,0,0,0-.436-.548,9.849,9.849,0,0,0-3.205-2.068A4.63,4.63,0,0,0-1705.331-802.894Z" transform="translate(-167.201 -125.664)" fill="#405de6"/>
    <path id="Path_104237" data-name="Path 104237" d="M-1792.746-888.633a3.142,3.142,0,0,1-3.142-3.144,3.15,3.15,0,0,1,3.156-3.152,3.155,3.155,0,0,1,3.135,3.157A3.147,3.147,0,0,1-1792.746-888.633Zm.011-.578a2.569,2.569,0,0,0,2.561-2.582,2.576,2.576,0,0,0-2.586-2.559,2.57,2.57,0,0,0-2.549,2.594A2.565,2.565,0,0,0-1792.735-889.211Z" transform="translate(-81.965 -45.756)" fill="#405de6"/>
    <path id="Path_104238" data-name="Path 104238" d="M-1838.834-736.033h-5.016a1.588,1.588,0,0,1-.2,0,.265.265,0,0,1-.245-.249.259.259,0,0,1,.185-.3.731.731,0,0,1,.23-.027q5.061,0,10.123,0a.692.692,0,0,1,.23.029.258.258,0,0,1,.174.3.26.26,0,0,1-.232.24,1.211,1.211,0,0,1-.2.006Z" transform="translate(-35.889 -196.451)" fill="#405de6"/>
    <path id="Path_104239" data-name="Path 104239" d="M-1841.006-696.988h2.922a1.146,1.146,0,0,1,.162,0,.284.284,0,0,1,.254.3.277.277,0,0,1-.264.271,1.255,1.255,0,0,1-.162,0h-5.88c-.227,0-.362-.107-.365-.284s.137-.293.375-.294h2.958Z" transform="translate(-35.847 -234.165)" fill="#405de6"/>
    <path id="Path_104240" data-name="Path 104240" d="M-1841.052-615.94h-2.727a1.052,1.052,0,0,1-.2-.01.24.24,0,0,1-.218-.266.518.518,0,0,1,.189-.273c.049-.041.15-.028.227-.028q2.736,0,5.471,0a.765.765,0,0,1,.232.025.259.259,0,0,1,.187.293.258.258,0,0,1-.221.249,1,1,0,0,1-.2.01Z" transform="translate(-35.983 -310.76)" fill="#405de6"/>
    <path id="Path_104241" data-name="Path 104241" d="M-1841.444-657.327q1.263,0,2.526,0c.138,0,.266.031.3.17a.345.345,0,0,1-.032.279.459.459,0,0,1-.3.124c-.348.015-.7.006-1.046.006h-3.88c-.048,0-.1,0-.144,0a.3.3,0,0,1-.332-.3c.008-.167.135-.273.337-.273Q-1842.725-657.328-1841.444-657.327Z" transform="translate(-35.843 -271.916)" fill="#405de6"/>
    <path id="Path_104242" data-name="Path 104242" d="M-1760.6-846.7l1.367-1.586c.2-.227.346-.271.5-.141s.137.29-.056.514l-1.472,1.707c-.19.221-.3.237-.538.074q-.391-.274-.78-.551c-.175-.126-.215-.286-.114-.431a.293.293,0,0,1,.444-.042C-1761.043-847.009-1760.834-846.859-1760.6-846.7Z" transform="translate(-114.456 -89.952)" fill="#405de6"/>
  </g>
</svg>
