<svg version="1.2" xmlns="http://www.w3.org/2000/svg" viewBox="0 0 24 27" width="24" height="27">
	<title>Group 49669-svg</title>
	<style>
		.s0 { fill: #ffffff } 
	</style>
	<filter id="f0">
		<feFlood flood-color="#a5a3a3" flood-opacity="1" />
		<feBlend mode="normal" in2="SourceGraphic"/>
		<feComposite in2="SourceAlpha" operator="in" />
	</filter>
	<g id="Group_49669" filter="url(#f0)">
		<path id="Path_1" fill-rule="evenodd" class="s0" d="m3.3 2.5h17.4q0.6 0 1.3 0.2 0.6 0.3 1 0.8 0.5 0.4 0.7 1 0.3 0.6 0.3 1.3v17.4q0 0.6-0.3 1.2-0.2 0.6-0.7 1.1-0.4 0.5-1 0.7-0.7 0.3-1.3 0.3h-17.4q-0.6 0-1.3-0.3-0.6-0.2-1-0.7-0.5-0.5-0.7-1.1-0.3-0.6-0.3-1.2v-17.4q0-0.7 0.3-1.3 0.2-0.6 0.7-1 0.4-0.5 1-0.8 0.7-0.2 1.3-0.2zm17.4 22.3q0.3 0 0.6-0.1 0.3-0.1 0.6-0.4 0.2-0.2 0.3-0.5 0.1-0.3 0.1-0.6v-17.4q0-0.3-0.1-0.6-0.1-0.3-0.3-0.6-0.3-0.2-0.6-0.3-0.3-0.2-0.6-0.2h-17.4q-0.3 0-0.6 0.2-0.3 0.1-0.6 0.3-0.2 0.3-0.3 0.6-0.1 0.3-0.1 0.6v17.4q0 0.3 0.1 0.6 0.1 0.3 0.3 0.5 0.3 0.3 0.6 0.4 0.3 0.1 0.6 0.1z"/>
		<path id="Path_2" class="s0" d="m17 6.6q-0.2 0-0.4 0-0.1-0.1-0.2-0.2-0.1-0.1-0.2-0.3-0.1-0.1-0.1-0.3v-5q0.1-0.3 0.3-0.5 0.2-0.3 0.6-0.3 0.3 0 0.5 0.3 0.3 0.2 0.3 0.5v5q0 0.2-0.1 0.3 0 0.2-0.2 0.3-0.1 0.1-0.2 0.2-0.2 0-0.3 0z"/>
		<path id="Path_3" class="s0" d="m7 6.6q-0.1 0-0.3 0-0.1-0.1-0.3-0.2-0.1-0.1-0.1-0.3-0.1-0.1-0.1-0.3v-5q0-0.3 0.3-0.5 0.2-0.3 0.5-0.3 0.4 0 0.6 0.3 0.2 0.2 0.3 0.5v5q0 0.2-0.1 0.3-0.1 0.2-0.2 0.3-0.1 0.1-0.3 0.2-0.1 0-0.3 0z"/>
		<path id="Path_4" class="s0" d="m23.2 11.6h-22.4q-0.3 0-0.5-0.3-0.3-0.2-0.3-0.5 0-0.4 0.3-0.6 0.2-0.3 0.5-0.3h22.4q0.3 0 0.5 0.3 0.3 0.2 0.3 0.6 0 0.3-0.3 0.5-0.2 0.3-0.5 0.3z"/>
	</g>
</svg>