<svg xmlns="http://www.w3.org/2000/svg" width="35" height="35" viewBox="0 0 35 35">
  <g id="Group_50211" data-name="Group 50211" transform="translate(-600.129 -491.21)">
    <rect id="Rectangle_28907" data-name="Rectangle 28907" width="35" height="35" transform="translate(600.129 491.21)" fill="none"/>
    <path id="Path_104228" data-name="Path 104228" d="M232.8,214.427a1.1,1.1,0,0,0,1.094,1.094h23.3a1.1,1.1,0,0,0,1.094-1.094,12.714,12.714,0,0,0-.26-2.567,12.857,12.857,0,0,0-.743-2.394,12.659,12.659,0,0,0-1.176-2.167,12.786,12.786,0,0,0-5.609-4.618c-.132-.058-.268-.107-.4-.161a8.228,8.228,0,0,0,1.217-1,8.083,8.083,0,1,0-10.268.978c-.157.058-.314.12-.466.186a12.659,12.659,0,0,0-2.167,1.176,12.732,12.732,0,0,0-5.361,8A12.986,12.986,0,0,0,232.8,214.427ZM246,201.695c-.285-.008-.574-.012-.858,0a5.9,5.9,0,1,1,.858,0Zm-10.961,11.638c.037-.351.091-.693.157-1.036a10.692,10.692,0,0,1,.615-1.981,10.308,10.308,0,0,1,.974-1.791,10.539,10.539,0,0,1,6.628-4.445,10.176,10.176,0,0,1,1.7-.2c.161.008.318.017.479.017s.293,0,.442-.012a10.225,10.225,0,0,1,1.634.2,10.694,10.694,0,0,1,1.981.615,10.163,10.163,0,0,1,1.791.974,10.539,10.539,0,0,1,4.445,6.628,9.806,9.806,0,0,1,.157,1.036h-21Z" transform="translate(372.085 307.1)" fill="#363b46"/>
  </g>
</svg>
