<svg xmlns="http://www.w3.org/2000/svg" width="35" height="35" viewBox="0 0 35 35">
  <g id="Group_50207" data-name="Group 50207" transform="translate(-324.5 -492.5)">
    <rect id="Rectangle_28906" data-name="Rectangle 28906" width="35" height="35" transform="translate(324.5 492.5)" fill="none"/>
    <g id="number-of-participants" transform="translate(165.633 391.566)">
      <path id="Path_104217" data-name="Path 104217" d="M232.8,212.7a1.025,1.025,0,0,0,1.023,1.023h21.8a1.025,1.025,0,0,0,1.023-1.023,11.9,11.9,0,0,0-.243-2.4,12.029,12.029,0,0,0-.7-2.239,11.843,11.843,0,0,0-1.1-2.027,11.963,11.963,0,0,0-5.247-4.321c-.124-.054-.251-.1-.375-.151a7.7,7.7,0,0,0,1.139-.938,7.562,7.562,0,1,0-9.607.915c-.147.054-.293.112-.436.174a11.844,11.844,0,0,0-2.027,1.1,11.912,11.912,0,0,0-5.016,7.487A12.149,12.149,0,0,0,232.8,212.7Zm12.352-11.912c-.266-.008-.537-.012-.8,0a5.522,5.522,0,1,1,.8,0ZM234.9,211.681c.035-.328.085-.649.147-.969a10,10,0,0,1,.575-1.853,9.646,9.646,0,0,1,.911-1.676,9.86,9.86,0,0,1,6.2-4.158,9.521,9.521,0,0,1,1.591-.189c.151.008.3.015.448.015s.274,0,.413-.012a9.567,9.567,0,0,1,1.529.189,10.006,10.006,0,0,1,1.853.575,9.509,9.509,0,0,1,1.676.911,9.86,9.86,0,0,1,4.158,6.2,9.17,9.17,0,0,1,.147.969H234.9Z" transform="translate(-67.009 -80.66)" fill="#363b46"/>
      <path id="Path_104218" data-name="Path 104218" d="M164.1,133.064a1,1,0,0,0,1-1,12.722,12.722,0,0,1,5.842-10.722,1,1,0,0,0,.239-1.467l-.34-.429a8.462,8.462,0,0,1-1.68-5.089,8.556,8.556,0,0,1,8.545-8.545,1,1,0,1,0,0-2.008,10.548,10.548,0,0,0-8.734,16.464,14.744,14.744,0,0,0-5.881,11.8,1,1,0,0,0,1,1Z" transform="translate(0 0)" fill="#363b46"/>
    </g>
  </g>
</svg>
