<svg xmlns="http://www.w3.org/2000/svg" width="20.693" height="20.694" viewBox="0 0 20.693 20.694">
  <g id="Group_49681" data-name="Group 49681" transform="translate(-37.473 -226.5)">
    <path id="Rectangle_9_-_Outline" data-name="Rectangle 9 - Outline" d="M1.069-1H5.9A2.072,2.072,0,0,1,7.968,1.069V5.9A2.072,2.072,0,0,1,5.9,7.968H1.069A2.072,2.072,0,0,1-1,5.9V1.069A2.072,2.072,0,0,1,1.069-1ZM5.9,6.588a.691.691,0,0,0,.69-.69V1.069A.691.691,0,0,0,5.9.38H1.069a.691.691,0,0,0-.69.69V5.9a.691.691,0,0,0,.69.69Z" transform="translate(50.2 239.227)" fill="#fff"/>
    <path id="Rectangle_10_-_Outline" data-name="Rectangle 10 - Outline" d="M1.069-1H5.9A2.072,2.072,0,0,1,7.968,1.069V5.9A2.072,2.072,0,0,1,5.9,7.968H1.069A2.072,2.072,0,0,1-1,5.9V1.069A2.072,2.072,0,0,1,1.069-1ZM5.9,6.588a.691.691,0,0,0,.69-.69V1.069A.691.691,0,0,0,5.9.38H1.069a.691.691,0,0,0-.69.69V5.9a.691.691,0,0,0,.69.69Z" transform="translate(50.2 227.5)" fill="#fff"/>
    <path id="Rectangle_11_-_Outline" data-name="Rectangle 11 - Outline" d="M1.069-1H5.9A2.072,2.072,0,0,1,7.968,1.069V5.9A2.072,2.072,0,0,1,5.9,7.968H1.069A2.072,2.072,0,0,1-1,5.9V1.069A2.072,2.072,0,0,1,1.069-1ZM5.9,6.588a.691.691,0,0,0,.69-.69V1.069A.691.691,0,0,0,5.9.38H1.069a.691.691,0,0,0-.69.69V5.9a.691.691,0,0,0,.69.69Z" transform="translate(38.473 227.5)" fill="#fff"/>
    <path id="Rectangle_12_-_Outline" data-name="Rectangle 12 - Outline" d="M1.069-1H5.9A2.072,2.072,0,0,1,7.968,1.069V5.9A2.072,2.072,0,0,1,5.9,7.968H1.069A2.072,2.072,0,0,1-1,5.9V1.069A2.072,2.072,0,0,1,1.069-1ZM5.9,6.588a.691.691,0,0,0,.69-.69V1.069A.691.691,0,0,0,5.9.38H1.069a.691.691,0,0,0-.69.69V5.9a.691.691,0,0,0,.69.69Z" transform="translate(38.473 239.227)" fill="#fff"/>
  </g>
</svg>
