<svg xmlns="http://www.w3.org/2000/svg" width="35" height="35" viewBox="0 0 35 35">
  <g id="Group_50209" data-name="Group 50209" transform="translate(-871.26 -493.53)">
    <rect id="Rectangle_28908" data-name="Rectangle 28908" width="35" height="35" transform="translate(871.26 493.53)" fill="none"/>
    <path id="data-source-management" d="M278.208,195.963c-5.948,0-11.969,1.627-11.969,4.738v20.04c0,3.11,6.021,4.738,11.969,4.738s11.969-1.627,11.969-4.738V200.7C290.177,197.59,284.156,195.963,278.208,195.963Zm9.974,24.778c0,.289-.53,1.016-2.538,1.7a27.047,27.047,0,0,1-14.872,0c-2.007-.684-2.538-1.412-2.538-1.7v-1.7a33.382,33.382,0,0,0,10.284,1.695,29.029,29.029,0,0,0,9.664-1.647v1.657Zm0-3.779a28.758,28.758,0,0,1-19.948-.026v-2.9a33.384,33.384,0,0,0,10.284,1.695,29.027,29.027,0,0,0,9.663-1.647Zm0-5.006a28.756,28.756,0,0,1-19.948-.026V208.26a33.39,33.39,0,0,0,10.284,1.695,29.033,29.033,0,0,0,9.663-1.647v3.648Zm0-5.77a28.758,28.758,0,0,1-19.948-.026v-2.721c2.26,1.32,6.131,2,9.974,2s7.713-.68,9.974-2v2.747Zm-2.538-3.784a27.047,27.047,0,0,1-14.872,0c-2.007-.684-2.538-1.412-2.538-1.7s.53-1.016,2.538-1.7a27.047,27.047,0,0,1,14.872,0c2.007.684,2.538,1.412,2.538,1.7s-.53,1.016-2.538,1.7Z" transform="translate(610.55 300.309)" fill="#363b46"/>
  </g>
</svg>
