<svg xmlns="http://www.w3.org/2000/svg" width="19.166" height="19.175" viewBox="0 0 19.166 19.175">
  <g id="Group_50217" data-name="Group 50217" transform="translate(2474.125 672.566)">
    <path id="Path_104228" data-name="Path 104228" d="M-2473.354-656.334v-.291q0-4.532,0-9.064a1.991,1.991,0,0,1,.078-.6,1.278,1.278,0,0,1,1.252-.861c.577,0,1.153,0,1.76,0,0-.1,0-.18,0-.262q0-2.018,0-4.036a.992.992,0,0,1,1.1-1.112q3.391,0,6.781,0a.6.6,0,0,1,.466.193q1.436,1.448,2.884,2.883a.614.614,0,0,1,.2.485c-.01.6,0,1.209,0,1.838.087,0,.16.013.234.013h1.436a1.3,1.3,0,0,1,1.422,1.418q0,4.553,0,9.106v.3c.161,0,.3,0,.439,0a.3.3,0,0,1,.333.309,9.393,9.393,0,0,1-.022,1.244,1.565,1.565,0,0,1-1.537,1.386c-.127.005-.254,0-.38,0h-15.505a1.552,1.552,0,0,1-1.648-1.2,7.678,7.678,0,0,1-.057-1.471c0-.176.146-.265.322-.271C-2473.657-656.338-2473.518-656.334-2473.354-656.334Zm10.817-15.606h-6.634c-.362,0-.479.117-.479.482q0,6.106,0,12.212c0,.375.118.492.494.492h9.21c.387,0,.5-.114.5-.506q0-4.68,0-9.36v-.233h-2.652c-.349,0-.439-.088-.44-.433q0-1.2,0-2.409Zm-8.879,15.605h.265q2,0,3.993,0c.78,0,.641-.08,1.01.6a.288.288,0,0,0,.294.176c.754-.008,1.509-.033,2.26.008a.683.683,0,0,0,.81-.491.447.447,0,0,1,.5-.3c1.451.007,2.9,0,4.352,0h.254V-665.2h-1.152v.268q0,2.842,0,5.684a1,1,0,0,1-1.123,1.116c-3.063,0-6.127-.006-9.19.005a1.052,1.052,0,0,1-1.122-1.129c.022-1.9.008-3.8.008-5.705v-.245h-1.155Zm15.824.623h-.277c-1.936,0-3.873.014-5.808-.011-.432-.006-.72.078-.857.512a.4.4,0,0,1-.447.273c-.929-.008-1.859,0-2.788,0-.734,0-.6.089-.96-.577a.313.313,0,0,0-.322-.2c-2.077.007-4.154,0-6.231,0h-.227v.585a.99.99,0,0,0,1.121,1.112h15.672c.077,0,.155,0,.232,0a.964.964,0,0,0,.887-.847C-2455.573-655.137-2455.591-655.412-2455.591-655.712Zm-14.679-10.819h-1.643c-.577,0-.826.247-.826.819q0,4.563,0,9.125v.237h.7v-8.925c0-.07,0-.141,0-.211.009-.239.111-.346.352-.353s.479,0,.718,0h.7Zm11.447.69h1.263c.435,0,.505.07.505.5v8.988h.7v-9.311c0-.049,0-.1,0-.148a.682.682,0,0,0-.716-.717c-.535,0-1.07,0-1.6,0-.047,0-.094.009-.148.014Zm-3.087-5.619v1.965h1.958Z" transform="translate(0 0)" fill="#f97105"/>
    <path id="Path_104229" data-name="Path 104229" d="M-2312.059-530.416c-.556,0-1.112,0-1.668,0-.256,0-.4-.109-.4-.3s.142-.319.407-.319q1.689,0,3.377,0c.257,0,.4.109.4.3s-.137.318-.406.318C-2310.919-530.415-2311.489-530.416-2312.059-530.416Z" transform="translate(-150.967 -133.539)" fill="#f97105"/>
    <path id="Path_104230" data-name="Path 104230" d="M-2312.06-571.5c-.577,0-1.155,0-1.731,0-.244,0-.4-.157-.361-.359a.308.308,0,0,1,.335-.261q1.752,0,3.5,0a.306.306,0,0,1,.343.318c0,.184-.136.3-.358.3C-2310.906-571.5-2311.483-571.5-2312.06-571.5Z" transform="translate(-150.939 -94.77)" fill="#f97105"/>
    <path id="Path_104231" data-name="Path 104231" d="M-2312.031-489.3c-.563,0-1.126,0-1.689,0-.266,0-.412-.118-.407-.32s.147-.3.4-.3q1.7,0,3.4,0c.25,0,.389.119.384.318s-.139.3-.381.3C-2310.892-489.3-2311.461-489.3-2312.031-489.3Z" transform="translate(-150.968 -172.336)" fill="#f97105"/>
    <path id="Path_104232" data-name="Path 104232" d="M-2368.1-498.05c.287-.288.533-.538.782-.786.17-.168.345-.188.481-.059s.132.318-.044.5q-.46.466-.926.926a.32.32,0,0,1-.528.008c-.152-.147-.3-.3-.448-.448a.311.311,0,0,1-.034-.451.3.3,0,0,1,.465.013A3.618,3.618,0,0,1-2368.1-498.05Z" transform="translate(-99.291 -163.79)" fill="#f97105"/>
    <path id="Path_104233" data-name="Path 104233" d="M-2368.1-539.161c.3-.3.543-.548.794-.795.172-.17.342-.187.48-.054s.129.318-.048.5q-.459.465-.925.925a.318.318,0,0,1-.527,0c-.152-.147-.3-.3-.447-.448a.31.31,0,0,1-.031-.451.3.3,0,0,1,.463.017A3.01,3.01,0,0,1-2368.1-539.161Z" transform="translate(-99.294 -124.992)" fill="#f97105"/>
    <path id="Path_104234" data-name="Path 104234" d="M-2368.111-580.236c.309-.312.562-.575.824-.83a.3.3,0,0,1,.5.038.3.3,0,0,1-.055.385c-.336.34-.673.68-1.016,1.013a.294.294,0,0,1-.45-.006q-.254-.238-.492-.492a.306.306,0,0,1-.006-.45.3.3,0,0,1,.434.015A3.224,3.224,0,0,1-2368.111-580.236Z" transform="translate(-99.288 -86.229)" fill="#f97105"/>
  </g>
</svg>
