<svg xmlns="http://www.w3.org/2000/svg" width="35" height="35" viewBox="0 0 35 35">
  <g id="Group_50206" data-name="Group 50206" transform="translate(-1150.109 -293.283)">
    <rect id="Rectangle_28905" data-name="Rectangle 28905" width="35" height="35" transform="translate(1150.109 293.283)" fill="none"/>
    <g id="Group_50206-2" data-name="Group 50206" transform="translate(-27.285 399.752)">
      <path id="Path_104212" data-name="Path 104212" d="M1188.047,36.039l-.817-.835c-.123-.126-.255-.246-.369-.38a.656.656,0,1,1,.93-.925c.385.363.75.747,1.126,1.12.1.1.208.2.372.351.053-.19.1-.331.131-.475q.626-3.113,1.248-6.228c.031-.157.069-.313.115-.467a.644.644,0,0,1,.668-.513l.337,0h11.169c.1,0,.193,0,.289,0a.667.667,0,0,1,.71.89c-.179.946-.376,1.888-.568,2.831q-.441,2.169-.885,4.337c-.028.138-.038.28-.057.422a1.1,1.1,0,0,0,.19.107,1.609,1.609,0,0,1,1.082,2.1c-.153.656-.3,1.314-.442,1.972a1.588,1.588,0,0,1-1.622,1.418c-.325.017-.4.181-.454.439-.156.8-.32,1.6-.483,2.407-.127.622-.316.805-.936.805-1.8,0-3.593-.021-5.39-.027-.48,0-.961.03-1.442.031-1.508,0-3.017.006-4.525,0-.831,0-1.076-.3-.922-1.108.12-.63.252-1.258.377-1.888.03-.152.053-.306.088-.512-.242-.011-.43-.028-.618-.028q-2.359,0-4.717,0a3.3,3.3,0,0,1-3.469-3.4c-.058-1.778-.009-3.561.061-5.339a4.68,4.68,0,0,1,.419-1.716,6.05,6.05,0,0,1,4.163-3.581,5.3,5.3,0,0,1,1.188-.152c1.348-.019,2.7-.009,4.044-.01a1.621,1.621,0,0,1,.24.011.644.644,0,0,1,.016,1.28,3.389,3.389,0,0,1-.48.018c-1.363.022-2.729,0-4.088.075a4.662,4.662,0,0,0-4.135,3.783,5.837,5.837,0,0,0-.1.955q-.015,2.311,0,4.622a1.966,1.966,0,0,0,2.077,2.094c1.733.01,3.466,0,5.2,0,.494,0,.5-.013.6-.486.148-.706.3-1.413.438-2.121.082-.41.026-.481-.4-.484-1.011-.006-2.022,0-3.033,0a4.368,4.368,0,0,1-.576-.025,1.218,1.218,0,0,1-1.14-1.217c-.026-.689-.017-1.38,0-2.07a.675.675,0,0,1,.672-.727.667.667,0,0,1,.659.692c.028.5.008.995.014,1.492.006.479.023.5.477.505.738.006,1.476,0,2.214,0C1187.778,36.081,1187.867,36.061,1188.047,36.039Zm14.448-7.005c-.232-.016-.4-.037-.573-.037q-4.693,0-9.386,0c-.545,0-.554,0-.662.534q-1.44,7.048-2.871,14.1a2.811,2.811,0,0,0-.022.392,4.019,4.019,0,0,0,.411.045q4.813,0,9.627.006c.307,0,.467-.094.524-.415.135-.758.3-1.511.453-2.265a.865.865,0,0,0-.175-.758,2.614,2.614,0,0,1,.833-3.989.79.79,0,0,0,.424-.59c.336-1.683.69-3.362,1.033-5.043C1202.242,30.371,1202.361,29.73,1202.5,29.034Zm-1.9,9.893a1.63,1.63,0,0,0,.966,1.418c.1.029.322-.049.339-.116.2-.767.374-1.539.538-2.314a.242.242,0,0,0-.26-.319A1.44,1.44,0,0,0,1200.594,38.927Z" transform="translate(0 -121.065)" fill="#363b46"/>
      <path id="Path_104213" data-name="Path 104213" d="M1378.387-79.881a8.4,8.4,0,0,1-2.9-.613.99.99,0,0,0-.58.009c-.649.167-1.288.375-1.938.54a.69.69,0,0,1-.829-.33.7.7,0,0,1,.142-.839c.078-.1.152-.207.226-.312a1.33,1.33,0,0,0,.089-1.616,4.177,4.177,0,0,1,1.369-5.5,7.37,7.37,0,0,1,5.359-1.413,7.25,7.25,0,0,1,3.5,1.229,5.184,5.184,0,0,1,1.665,1.831,4.227,4.227,0,0,1-.968,5.173A7.528,7.528,0,0,1,1378.387-79.881Zm-4.215-1.752a5.638,5.638,0,0,0,.511-.258.836.836,0,0,1,.909-.037,6.327,6.327,0,0,0,3.4.683,5.477,5.477,0,0,0,3.727-1.559c1.563-1.607,1.073-3.606-.592-4.784a6.22,6.22,0,0,0-4.3-1.038,5.591,5.591,0,0,0-3.349,1.418,2.813,2.813,0,0,0-.466,3.933,1.253,1.253,0,0,1,.234,1.29A2.656,2.656,0,0,0,1374.172-81.633Z" transform="translate(-174.338 -14.722)" fill="#363b46"/>
      <path id="Path_104214" data-name="Path 104214" d="M1240.925-106.284a5.976,5.976,0,0,1,6.035,6.007,6,6,0,0,1-6,6.022,6.05,6.05,0,0,1-6.022-6A6.021,6.021,0,0,1,1240.925-106.284Zm-4.63,6a4.7,4.7,0,0,0,4.625,4.7,4.7,4.7,0,0,0,4.695-4.684,4.718,4.718,0,0,0-4.627-4.7A4.686,4.686,0,0,0,1236.295-100.288Z" transform="translate(-50.43 0)" fill="#363b46"/>
      <path id="Path_104215" data-name="Path 104215" d="M1232.778,189.943c-1.557,0-3.113,0-4.67,0a2.055,2.055,0,0,1-2.173-2.175c-.006-1.2,0-2.407,0-3.611,0-.627.258-.976.693-.961.417.014.654.35.656.953,0,1.172,0,2.343,0,3.515,0,.71.246.968.949.969q4.55.008,9.1,0c.731,0,.982-.258,1.01-.979a1.855,1.855,0,0,1,.033-.382.662.662,0,0,1,.636-.495.585.585,0,0,1,.6.47,2.1,2.1,0,0,1-1.495,2.634,2.449,2.449,0,0,1-.668.06C1235.891,189.946,1234.335,189.943,1232.778,189.943Z" transform="translate(-42.287 -261.598)" fill="#363b46"/>
      <path id="Path_104216" data-name="Path 104216" d="M1415.812-56.189c.5-.509.961-.975,1.422-1.437a3,3,0,0,1,.427-.384.628.628,0,0,1,.831.084.7.7,0,0,1,.009.88c-.727.762-1.459,1.52-2.209,2.259a.611.611,0,0,1-.972-.007c-.454-.428-.893-.871-1.322-1.324a.65.65,0,0,1-.017-.945.658.658,0,0,1,.947.021c.145.125.274.269.412.4S1415.614-56.378,1415.812-56.189Z" transform="translate(-212.049 -43.517)" fill="#363b46"/>
    </g>
  </g>
</svg>
