<svg xmlns="http://www.w3.org/2000/svg" width="19.026" height="17.67" viewBox="0 0 19.026 17.67">
  <g id="download-1" transform="translate(0.25 0.25)">
    <g id="Group_21" data-name="Group 21">
      <path id="Path_20" data-name="Path 20" d="M18,228.229a.529.529,0,0,0-.531.531v4.828a2.382,2.382,0,0,1-2.379,2.379H3.44a2.382,2.382,0,0,1-2.379-2.379v-4.907a.531.531,0,1,0-1.062,0v4.907a3.444,3.444,0,0,0,3.44,3.44H15.086a3.444,3.444,0,0,0,3.44-3.44v-4.828A.531.531,0,0,0,18,228.229Z" transform="translate(0 -219.858)" fill="#fff" stroke="#fff" stroke-width="0.5"/>
      <path id="Path_21" data-name="Path 21" d="M3.534,12.955a.534.534,0,0,0,.374.157.518.518,0,0,0,.374-.157L7.654,9.582A.531.531,0,0,0,6.9,8.831L4.438,11.3V.531a.531.531,0,1,0-1.062,0V11.3L.907,8.831a.531.531,0,0,0-.751.751Z" transform="translate(13.166 13.112) rotate(180)" fill="#fff" stroke="#fff" stroke-width="0.5"/>
    </g>
  </g>
</svg>
