<svg id="edit_user" xmlns="http://www.w3.org/2000/svg" width="18.499" height="18.5" viewBox="0 0 18.499 18.5">
  <path id="Path_7136" data-name="Path 7136" d="M16.518,21.958H4.69a2.443,2.443,0,0,1-2.44-2.44V7.69A2.443,2.443,0,0,1,4.69,5.25H10.6a.75.75,0,1,1,0,1.5H4.69a.941.941,0,0,0-.94.94V19.518a.941.941,0,0,0,.94.94H16.518a.941.941,0,0,0,.94-.94V13.6a.75.75,0,0,1,1.5,0v5.914A2.443,2.443,0,0,1,16.518,21.958Z" transform="translate(-2.25 -3.458)" fill="#383876"/>
  <path id="Path_7137" data-name="Path 7137" d="M22.138,2.068a2.542,2.542,0,0,1,1.8,4.34L15.91,14.434a.75.75,0,0,1-.348.2l-3.379.845a.75.75,0,0,1-.91-.91l.845-3.379a.75.75,0,0,1,.2-.348l8.026-8.026A2.526,2.526,0,0,1,22.138,2.068ZM15,13.227l7.879-7.879A1.042,1.042,0,0,0,21.4,3.873l-7.879,7.879-.491,1.965Z" transform="translate(-6.181 -2.068)" fill="#383876"/>
</svg>
