<svg xmlns="http://www.w3.org/2000/svg" width="20.163" height="14.603" viewBox="0 0 20.163 14.603">
  <path id="email-icon" d="M1.2,0H19.064a1.161,1.161,0,0,1,1.15,1.158V13.435a1.15,1.15,0,0,1-.2.657.457.457,0,0,1-.108.164.43.43,0,0,1-.108.076,1.15,1.15,0,0,1-.741.271H1.2a1.161,1.161,0,0,1-1.15-1.15V1.158A1.161,1.161,0,0,1,1.2,0ZM1.15,12.947,7.19,6.671l-6.04-5.1V12.947ZM8.1,7.454,1.646,13.7H18.561l-6.167-6.25L10.588,8.966h0a.443.443,0,0,1-.567,0Zm5.189-.795L19.113,13V1.511ZM1.718.888l8.569,6.945L18.479.888Z" transform="translate(-0.05)" fill="#3f4244"/>
</svg>
