<svg version="1.2" xmlns="http://www.w3.org/2000/svg" viewBox="0 0 17 16" width="17" height="16">
	<title>eye-org-svg</title>
	<style>
		.s0 { fill: none } 
		.s1 { fill: none;stroke: #3f4244;stroke-linecap: round;stroke-linejoin: round;stroke-width: 1.3 } 
	</style>
	<path id="Rectangle_1489" fill-rule="evenodd" class="s0" d="m0 0h16v16h-16z"/>
	<g id="Icon_feather-eye">
		<path id="Path_803" fill-rule="evenodd" class="s1" d="m1 8.3c0 0 2.7-5.3 7.3-5.3 4.7 0 7.4 5.3 7.4 5.3 0 0-2.7 5.4-7.4 5.4-4.6 0-7.3-5.4-7.3-5.4z"/>
		<path id="Path_804" fill-rule="evenodd" class="s1" d="m10.3 8.3c0 0.8-0.5 1.6-1.2 1.9-0.7 0.3-1.6 0.1-2.2-0.5-0.6-0.5-0.7-1.4-0.4-2.1 0.3-0.8 1-1.3 1.8-1.3q0.4 0 0.8 0.2 0.4 0.1 0.6 0.4 0.3 0.3 0.5 0.7 0.1 0.3 0.1 0.7z"/>
	</g>
</svg>