<svg xmlns="http://www.w3.org/2000/svg" width="26.093" height="18.85" viewBox="0 0 26.093 18.85">
  <g id="Group_49692" data-name="Group 49692" transform="translate(-1308.836 -370.399)">
    <g id="Group_49690" data-name="Group 49690" transform="translate(1321.82 370.785)">
      <path id="Path_7137" data-name="Path 7137" d="M21.878,2.068A2.481,2.481,0,0,1,23.633,6.3L15.8,14.139a.732.732,0,0,1-.34.193l-3.3.825a.732.732,0,0,1-.888-.888l.825-3.3a.732.732,0,0,1,.193-.34l7.834-7.835A2.465,2.465,0,0,1,21.878,2.068ZM14.907,12.96,22.6,5.269A1.017,1.017,0,0,0,21.159,3.83l-7.691,7.691-.48,1.918Z" transform="translate(-11.25 -2.068)" fill="#383876"/>
    </g>
    <g id="Group_49691" data-name="Group 49691" transform="translate(1308.836 370.399)">
      <path id="Path_104124" data-name="Path 104124" d="M130.932,114.2h-.007l-.087-.013c-.064-.009-.131-.019-.2-.035a2.839,2.839,0,0,1-2.231-2.179c-.019-.075-.033-.152-.046-.226-.006-.034-.012-.067-.018-.1l0-.009V97.917l0-.009c.007-.035.013-.069.019-.1.013-.077.027-.156.048-.234a2.825,2.825,0,0,1,2.173-2.151c.083-.021.168-.034.25-.047l.111-.018h14.329l.108.018c.079.013.161.026.242.045a2.823,2.823,0,0,1,2.137,1.966,2.406,2.406,0,0,1,.121.79c0,.1,0,.194,0,.288q0,.065,0,.128v.057l-.051.025a9.286,9.286,0,0,1-1.389.179.32.32,0,0,1-.055,0l-.071-.013,0-.072c0-.01,0-.021,0-.032,0-.026,0-.053,0-.081,0-.062,0-.125,0-.187,0-.106,0-.216,0-.324a1.279,1.279,0,0,0-1.061-1.191,1.684,1.684,0,0,0-.236-.02h-7.149l-6.646,0a1.245,1.245,0,0,0-1.184.758,1.067,1.067,0,0,0-.11.486c0,.026,0,.052,0,.078s0,.032,0,.048v2.269c0,3.509,0,7.138,0,10.707a1.3,1.3,0,0,0,.126.619,1.233,1.233,0,0,0,1.158.73c2.131,0,4.461,0,7.333,0h6.485a1.291,1.291,0,0,0,1.281-1.108,1.227,1.227,0,0,0,.008-.193c0-.018,0-.036,0-.054q0-1.447,0-2.893v-.76c0-.188.035-.228.221-.251l1.206-.15h.016a.2.2,0,0,1,.035,0l.021,0,.08.01v.2q0,.583,0,1.166c0,.905,0,1.841,0,2.762a2.782,2.782,0,0,1-.844,2.013,2.846,2.846,0,0,1-1.6.8l-.151.024Z" transform="translate(-128.344 -95.353)" fill="#383876"/>
      <path id="Path_104125" data-name="Path 104125" d="M268.154,279.038h-4.206A1.444,1.444,0,0,1,263.6,279a.763.763,0,0,1-.58-.84.777.777,0,0,1,.671-.7,1.476,1.476,0,0,1,.205-.014h11.917a1.578,1.578,0,0,1,.228.016.786.786,0,0,1,.046,1.541,1.576,1.576,0,0,1-.324.026h-7.608Z" transform="translate(-259.951 -273.307)" fill="#383876"/>
      <path id="Path_104126" data-name="Path 104126" d="M268.083,460.745h-4.437a.773.773,0,0,1-.751-.542.793.793,0,0,1,.1-.691.806.806,0,0,1,.611-.343l.052,0h8.8a.838.838,0,0,1,.584.2.787.787,0,0,1-.514,1.374h-4.438Z" transform="translate(-259.794 -450.883)" fill="#383876"/>
      <path id="Path_104127" data-name="Path 104127" d="M263.608,642.9a.756.756,0,0,1-.661-.35.782.782,0,0,1-.068-.749.769.769,0,0,1,.591-.461,1.109,1.109,0,0,1,.184-.017h4.174a.788.788,0,0,1,.721.379.75.75,0,0,1,.019.794.738.738,0,0,1-.672.4h-4.289Z" transform="translate(-259.753 -628.89)" fill="#383876"/>
    </g>
  </g>
</svg>
