<svg xmlns="http://www.w3.org/2000/svg" width="15.727" height="16.116" viewBox="0 0 15.727 16.116">
  <g id="Group_49884" data-name="Group 49884" transform="translate(-318.953 -140.837)">
    <path id="Path_104144" data-name="Path 104144" d="M334.114,140.837a1.864,1.864,0,0,1,.384.229.635.635,0,0,1,.094.77,1.861,1.861,0,0,1-.125.2q-2.549,3.593-5.1,7.183a1.975,1.975,0,0,0-.384,1.2c.008,1.543,0,3.085,0,4.628a.668.668,0,0,1-.52.758c-.939.359-1.88.716-2.818,1.078a.7.7,0,0,1-.79-.116.76.76,0,0,1-.211-.6q0-2.605,0-5.21c0-.184-.008-.368,0-.551a1.806,1.806,0,0,0-.37-1.173q-2.571-3.606-5.131-7.221a.686.686,0,0,1-.029-.92,1.805,1.805,0,0,1,.386-.251Zm-8.651,15.227c.071-.023.121-.036.168-.054.788-.3,1.574-.6,2.365-.9a.217.217,0,0,0,.173-.244c-.006-1.5,0-2.99-.006-4.485a2.685,2.685,0,0,1,.517-1.616q2.475-3.471,4.938-6.95c.032-.045.062-.093.1-.152H319.911c.045.066.078.117.114.167q2.454,3.457,4.911,6.912a2.738,2.738,0,0,1,.53,1.659c-.01,1.82,0,3.641,0,5.461Z" transform="translate(0)" fill="#fff"/>
  </g>
</svg>
