<svg xmlns="http://www.w3.org/2000/svg" width="34" height="34" viewBox="0 0 34 34">
  <g id="Group_50204" data-name="Group 50204" transform="translate(-602.653 -295.58)">
    <rect id="Rectangle_28903" data-name="Rectangle 28903" width="34" height="34" transform="translate(602.653 295.58)" fill="none"/>
    <g id="Group_50201" data-name="Group 50201" transform="translate(607.512 296.428)">
      <path id="Path_104199" data-name="Path 104199" d="M359.993,28.271c-.488-.059-.978-.11-1.464-.179a10.838,10.838,0,0,1-4.489-1.543,7.2,7.2,0,0,1-3.034-4.084,12.721,12.721,0,0,1-.465-4.985,3.076,3.076,0,0,1,1.866-2.516c.1-.05.209-.092.325-.143v-.387q0-4.571,0-9.143a3.208,3.208,0,0,1,5.07-2.7,3.014,3.014,0,0,1,1.3,2.59c-.013,1.5,0,3.006,0,4.508,0,.124,0,.248,0,.421a3.282,3.282,0,0,1,3.67,1.568,3.25,3.25,0,0,1,4.038,1.447,13.5,13.5,0,0,1,1.43-.119,3.122,3.122,0,0,1,2.721,2.028,4.351,4.351,0,0,1,.21,1.231c.023,1.26.045,2.524-.011,3.782a8.47,8.47,0,0,1-1.994,5.355,7.55,7.55,0,0,1-3.176,2.146,12.253,12.253,0,0,1-3.161.676,2.5,2.5,0,0,0-.246.046Zm-6.3-12.118a1.723,1.723,0,0,0-1.7,1.481,11.532,11.532,0,0,0,.411,4.425,5.839,5.839,0,0,0,1.179,2.17,7.155,7.155,0,0,0,3.951,2.2,16.558,16.558,0,0,0,3.815.395,11.436,11.436,0,0,0,4.264-.692,6.261,6.261,0,0,0,2.293-1.516,6.672,6.672,0,0,0,1.772-4.373c.074-1.362.02-2.731.034-4.1a1.71,1.71,0,0,0-2.033-1.665,1.588,1.588,0,0,0-1.149.7,1.853,1.853,0,0,0-.22.642c-.05.262-.138.4-.317.392s-.267-.147-.272-.425c0-.126,0-.252,0-.378,0-.252.009-.5,0-.756a1.678,1.678,0,0,0-.972-1.543,1.769,1.769,0,0,0-1.825.153,1.416,1.416,0,0,0-.646,1.133c-.02.247-.132.378-.3.358-.222-.026-.288-.182-.284-.384,0-.073,0-.147,0-.221,0-.326.009-.652,0-.977a1.725,1.725,0,0,0-3.446-.052.978.978,0,0,1-.027.218c-.047.148-.162.247-.308.2a.463.463,0,0,1-.247-.236.884.884,0,0,1-.019-.342q0-3.909,0-7.819a1.6,1.6,0,0,0-.245-.928,1.753,1.753,0,0,0-3.2,1.1q.008,6.274,0,12.548a1.061,1.061,0,0,1-.025.374.36.36,0,0,1-.234.2c-.06.01-.17-.1-.208-.181a.76.76,0,0,1-.037-.309c0-.431,0-.862,0-1.293Z" transform="translate(-346.911 4.033)" fill="#363b46"/>
      <path id="Path_104200" data-name="Path 104200" d="M328.478-56.64a11.009,11.009,0,0,1-.412,2.552.742.742,0,0,1-.9.583.757.757,0,0,1-.5-.973,13.944,13.944,0,0,0,.289-1.766,7.129,7.129,0,0,0-1.341-4.688,7.25,7.25,0,0,0-4.51-3,7.205,7.205,0,0,0-5.823,1.147,7.285,7.285,0,0,0-3.192,5.345,7.1,7.1,0,0,0,.194,2.688,2.592,2.592,0,0,1,.1.554.7.7,0,0,1-.507.682.687.687,0,0,1-.81-.331,4.151,4.151,0,0,1-.272-.866,8.761,8.761,0,0,1,.777-6,8.736,8.736,0,0,1,4.685-4.236,8.675,8.675,0,0,1,5.773-.253,8.773,8.773,0,0,1,4.489,3.043,8.432,8.432,0,0,1,1.7,3.612C328.343-57.913,328.394-57.273,328.478-56.64Z" transform="translate(-310.58 65.57)" fill="#363b46"/>
      <path id="Path_104201" data-name="Path 104201" d="M355.915-26.3a2.4,2.4,0,0,1,0,.346.733.733,0,0,1-.695.619.706.706,0,0,1-.7-.561c-.076-.411-.088-.836-.186-1.241a4.471,4.471,0,0,0-4.411-3.4,4.5,4.5,0,0,0-4.318,3.609c-.054.277-.059.563-.086.844a.733.733,0,0,1-.954.71.756.756,0,0,1-.5-.819,5.776,5.776,0,0,1,1.065-3.243,5.756,5.756,0,0,1,4.821-2.552,5.9,5.9,0,0,1,5.782,4.388,5.792,5.792,0,0,1,.13.615c.037.228.056.458.083.687Z" transform="translate(-341.066 34.991)" fill="#363b46"/>
    </g>
  </g>
</svg>
