<svg version="1.2" xmlns="http://www.w3.org/2000/svg" viewBox="0 0 11 11" width="11" height="11">
	<title>info-svg</title>
	<style>
		.s0 { fill: #363b46 } 
	</style>
	<g id="Icon_ionic-ios-information-circle-outline">
		<path id="Path_104105" class="s0" d="m4.8 3.2c0-0.2 0.1-0.4 0.3-0.5 0.2-0.1 0.4-0.1 0.6 0.1 0.1 0.1 0.2 0.4 0.1 0.6-0.1 0.2-0.3 0.3-0.5 0.3q-0.1 0-0.2 0-0.1-0.1-0.1-0.2-0.1 0-0.2-0.1 0-0.1 0-0.2zm0 0.9h1v3.7h-1z"/>
		<path id="Path_104106" fill-rule="evenodd" class="s0" d="m7.4 0.4q0.9 0.4 1.7 1.2 0.7 0.7 1.1 1.7 0.5 1 0.5 2c0 2.2-1.3 4.1-3.3 4.9-2 0.9-4.3 0.4-5.8-1.1-1.6-1.5-2-3.8-1.2-5.8 0.8-2 2.8-3.3 4.9-3.3q1.1 0 2.1 0.4zm-3 0.4q-0.4 0.1-0.8 0.3-0.5 0.1-0.8 0.4-0.4 0.2-0.7 0.6c-1.6 1.5-1.8 4-0.6 5.8 1.2 1.8 3.6 2.5 5.6 1.7 2-0.9 3.2-3 2.7-5.2-0.4-2.1-2.3-3.7-4.5-3.7q-0.4 0-0.9 0.1z"/>
	</g>
</svg>