<svg xmlns="http://www.w3.org/2000/svg" width="24" height="26.483" viewBox="0 0 24 26.483">
  <g id="Group_49679" data-name="Group 49679" transform="translate(-31.473 -672.696)">
    <path id="Path_1" data-name="Path 1" d="M6.809,5H24.191A3.313,3.313,0,0,1,27.5,8.309V25.691A3.313,3.313,0,0,1,24.191,29H6.809A3.313,3.313,0,0,1,3.5,25.691V8.309A3.313,3.313,0,0,1,6.809,5ZM24.191,27.349a1.659,1.659,0,0,0,1.657-1.657V8.309a1.659,1.659,0,0,0-1.657-1.657H6.809A1.659,1.659,0,0,0,5.151,8.309V25.691a1.659,1.659,0,0,0,1.657,1.657Z" transform="translate(27.973 670.179)" fill="#fff"/>
    <path id="Path_2" data-name="Path 2" d="M23.826,8.618A.826.826,0,0,1,23,7.792V2.826a.826.826,0,0,1,1.651,0V7.792A.826.826,0,0,1,23.826,8.618Z" transform="translate(24.613 670.696)" fill="#fff"/>
    <path id="Path_3" data-name="Path 3" d="M11.826,8.618A.826.826,0,0,1,11,7.792V2.826a.826.826,0,0,1,1.651,0V7.792A.826.826,0,0,1,11.826,8.618Z" transform="translate(26.68 670.696)" fill="#fff"/>
    <path id="Path_4" data-name="Path 4" d="M26.674,15.651H4.326a.826.826,0,0,1,0-1.651H26.674a.826.826,0,0,1,0,1.651Z" transform="translate(27.973 668.629)" fill="#fff"/>
  </g>
</svg>
