<svg xmlns="http://www.w3.org/2000/svg" width="26.779" height="25.277" viewBox="0 0 26.779 25.277">
  <g id="Group_49678" data-name="Group 49678" transform="translate(-707.072 -475.465)">
    <path id="Path_104084" data-name="Path 104084" d="M717.492,487.1a6.148,6.148,0,1,1,3.761.7c-.753.1-1.513.132-2.267.217a11.669,11.669,0,0,0-5.675,2.225,11.909,11.909,0,0,0-4.651,6.877c-.193.765-.278,1.557-.421,2.388h.359q6.425,0,12.851,0a1.769,1.769,0,0,1,.436.039.542.542,0,0,1,.009,1.04,1.178,1.178,0,0,1-.332.041q-6.841,0-13.681,0c-.5,0-.709-.207-.708-.708a13.266,13.266,0,0,1,8.573-12.253C716.31,487.462,716.891,487.3,717.492,487.1Zm2.959-10.414a5.024,5.024,0,1,0,5.016,5.01A5.013,5.013,0,0,0,720.451,476.691Z" transform="translate(0 0)" fill="#fff" stroke="#fff" stroke-width="0.2"/>
    <path id="Path_104085" data-name="Path 104085" d="M717.543,502.424h-7.767a.5.5,0,0,1-.6-.6,13.162,13.162,0,0,1,8.505-12.155c.381-.141.764-.259,1.17-.385.189-.059.38-.118.573-.18l.226-.073-.207-.117a6.047,6.047,0,1,1,7.695-1.634,5.943,5.943,0,0,1-4,2.32c-.414.053-.838.088-1.248.122-.334.028-.679.057-1.018.095a11.808,11.808,0,0,0-5.725,2.244,12.042,12.042,0,0,0-4.69,6.936c-.132.526-.213,1.054-.3,1.614-.039.254-.079.517-.124.781l-.021.121h3.636l9.7,0a1.663,1.663,0,0,1,.41.036.438.438,0,0,1,.005.84,1.06,1.06,0,0,1-.3.037Zm4.8-23.941a5.128,5.128,0,1,0-.01,10.255h.04a5.128,5.128,0,0,0,.007-10.255Z" transform="translate(-1.896 -1.896)" fill="#fff" stroke="#fff" stroke-width="0.2"/>
    <path id="Path_104086" data-name="Path 104086" d="M717.543,502.424h-7.767a.5.5,0,0,1-.6-.6,13.162,13.162,0,0,1,8.505-12.155c.381-.141.764-.259,1.17-.385.189-.059.38-.118.573-.18l.226-.073-.207-.117a6.047,6.047,0,1,1,7.695-1.634,5.943,5.943,0,0,1-4,2.32c-.414.053-.838.088-1.248.122-.334.028-.679.057-1.018.095a11.808,11.808,0,0,0-5.725,2.244,12.042,12.042,0,0,0-4.69,6.936c-.132.526-.213,1.054-.3,1.614-.039.254-.079.517-.124.781l-.021.121h3.636l9.7,0a1.663,1.663,0,0,1,.41.036.438.438,0,0,1,.005.84,1.06,1.06,0,0,1-.3.037Zm4.8-23.941a5.128,5.128,0,1,0-.01,10.255h.04a5.128,5.128,0,0,0,.007-10.255Z" transform="translate(-1.896 -1.896)" fill="#fff" stroke="#fff" stroke-width="0.2"/>
    <path id="Path_104087" data-name="Path 104087" d="M719.439,504.216h-7.767a.407.407,0,0,1-.5-.5,13.058,13.058,0,0,1,8.438-12.058c.38-.14.761-.258,1.165-.383l.01,0c.186-.058.374-.116.564-.177l.451-.145-.413-.233a5.943,5.943,0,1,1,7.561-1.607,5.84,5.84,0,0,1-3.928,2.28c-.413.053-.835.088-1.243.122-.334.028-.68.057-1.021.1a11.909,11.909,0,0,0-5.775,2.264,12.143,12.143,0,0,0-4.729,6.994c-.134.531-.215,1.062-.3,1.624-.039.254-.079.516-.124.779l-.042.243h3.759l9.7,0a1.575,1.575,0,0,1,.384.032.315.315,0,0,1,.238.317.318.318,0,0,1-.237.323.964.964,0,0,1-.273.033Zm4.8-23.941a5.231,5.231,0,1,0-.01,10.463h.04a5.232,5.232,0,0,0,.006-10.463h-.037Z" transform="translate(-3.792 -3.792)" fill="#fff" stroke="#fff" stroke-width="0.2"/>
    <path id="Path_104088" data-name="Path 104088" d="M983.568,728.14c-.033.222-.059.445-.1.665a1.265,1.265,0,0,0,1.195,1.611c.755.082,1,.352,1,1.106-.007.726-.026,1.452-.048,2.177a.678.678,0,0,1-.6.724,6.907,6.907,0,0,0-.681.15,1.258,1.258,0,0,0-.83,1.694.773.773,0,0,1-.355,1.083c-.585.384-1.177.757-1.774,1.123a.312.312,0,0,1-.27,0c-.406-.245-.809-.5-1.2-.767a.929.929,0,0,0-1.335.021c-.192.147-.378.3-.576.442a1.016,1.016,0,0,1-1.083.1c-.539-.271-1.063-.575-1.579-.887a.715.715,0,0,1-.33-.809c.032-.161.04-.327.084-.484a1.286,1.286,0,0,0-1.241-1.627c-.686-.067-.942-.346-.951-1.037,0-.294-.022-.588-.015-.882q.017-.713.06-1.425a.683.683,0,0,1,.573-.648c.167-.044.339-.062.508-.1a1.216,1.216,0,0,0,1.04-1.638c-.016-.067-.033-.134-.049-.2a.889.889,0,0,1,.405-1.1c.492-.3,1-.576,1.518-.84a1.053,1.053,0,0,1,1.151.106c.2.145.4.3.605.447a.905.905,0,0,0,1.174.026c.21-.136.407-.293.611-.438a1.092,1.092,0,0,1,1.22-.1c.5.268,1,.549,1.49.837A.721.721,0,0,1,983.568,728.14Zm-6.229-.329c-.447.026-.7.365-1.028.537-.028.014-.02.109-.019.166.005.259.029.519.018.777a2.218,2.218,0,0,1-1.7,2.18c-.516.155-.636.314-.646.853,0,.1,0,.19,0,.285.016.5.144.669.629.815a2.34,2.34,0,0,1,1.719,2.635.623.623,0,0,0,.374.766.857.857,0,0,0,.858.076c.129-.069.247-.158.369-.239a1.949,1.949,0,0,1,1.578-.42,4.389,4.389,0,0,1,.994.419c.835.457.829.466,1.637-.022.022-.013.055-.021.065-.04a.459.459,0,0,0,.08-.191c0-.284-.04-.569-.031-.852a2.238,2.238,0,0,1,1.662-2.13.777.777,0,0,0,.68-.894c0-.112,0-.225-.006-.337a.7.7,0,0,0-.591-.708,2.761,2.761,0,0,1-.848-.412,2.446,2.446,0,0,1-.9-2.521c.013-.073.012-.2-.03-.225-.666-.466-.967-.631-1.652-.149a2.726,2.726,0,0,1-1.014.413,2.1,2.1,0,0,1-1.62-.474A5.219,5.219,0,0,0,977.339,727.811Z" transform="translate(-251.908 -237.875)" fill="#fff" stroke="#fff" stroke-width="0.2"/>
    <path id="Path_104089" data-name="Path 104089" d="M983.121,740.3a.168.168,0,0,1-.074-.014c-.487-.294-.855-.529-1.192-.763a1.282,1.282,0,0,0-.727-.291,1.2,1.2,0,0,0-.731.315l-.186.146c-.125.1-.255.2-.386.294a.982.982,0,0,1-.568.194.906.906,0,0,1-.409-.1c-.59-.3-1.15-.628-1.572-.883a.609.609,0,0,1-.282-.7c.013-.067.022-.134.031-.2a2.12,2.12,0,0,1,.05-.277,1.325,1.325,0,0,0-.169-1.122,1.573,1.573,0,0,0-1.162-.636c-.633-.062-.849-.3-.857-.935,0-.107,0-.214-.008-.32-.006-.183-.011-.373-.007-.558.011-.462.031-.94.06-1.421a.578.578,0,0,1,.5-.554c.094-.025.189-.041.29-.058.07-.012.142-.024.214-.04a1.317,1.317,0,0,0,1.119-1.764c-.012-.049-.024-.1-.036-.147l-.013-.055a.788.788,0,0,1,.359-.987c.529-.326,1.085-.618,1.511-.836a.964.964,0,0,1,.441-.113,1.038,1.038,0,0,1,.6.211c.1.07.2.145.294.217s.206.155.311.229a1.137,1.137,0,0,0,.66.248,1.15,1.15,0,0,0,.63-.22c.138-.09.272-.189.4-.285.071-.052.142-.1.213-.156a1.077,1.077,0,0,1,.627-.222,1.028,1.028,0,0,1,.484.13c.45.24.923.505,1.486.835a.621.621,0,0,1,.337.567q-.015.1-.029.2c-.021.148-.042.3-.07.45a1.367,1.367,0,0,0,1.286,1.733c.708.077.911.3.9,1-.008.777-.029,1.536-.048,2.176a.577.577,0,0,1-.525.626c-.081.019-.166.034-.247.049a2.946,2.946,0,0,0-.444.1,1.358,1.358,0,0,0-.895,1.824c.161.489.094.7-.313.963-.531.349-1.11.716-1.771,1.121A.192.192,0,0,1,983.121,740.3Zm-2.08-2.1a1.3,1.3,0,0,1,.323.041,4.381,4.381,0,0,1,.97.41l.033.018a1.911,1.911,0,0,0,.841.338,1.857,1.857,0,0,0,.866-.38l.013-.006a.174.174,0,0,0,.091-.075l.021-.037a.4.4,0,0,0,.071-.2c0-.122-.009-.245-.016-.365-.01-.159-.02-.324-.015-.483a2.144,2.144,0,0,1,1.588-2.034.876.876,0,0,0,.755-.992c0-.133,0-.243-.006-.345a.8.8,0,0,0-.663-.8,2.607,2.607,0,0,1-.816-.4,2.353,2.353,0,0,1-.857-2.422c.007-.041.037-.251-.073-.328a1.844,1.844,0,0,0-1-.458,1.358,1.358,0,0,0-.774.309,2.626,2.626,0,0,1-.975.4,1.45,1.45,0,0,1-.285.028,2.29,2.29,0,0,1-1.256-.486,2.923,2.923,0,0,0-.412-.224c-.062-.029-.123-.059-.184-.09l-.025-.013-.029,0a1.408,1.408,0,0,0-.772.35,2.24,2.24,0,0,1-.3.2c-.082.042-.079.145-.076.235v.025c0,.093.006.186.01.277.007.163.015.331.008.494a2.124,2.124,0,0,1-1.625,2.085c-.562.169-.709.364-.72.95,0,.106,0,.2,0,.29a.808.808,0,0,0,.7.911,2.225,2.225,0,0,1,1.646,2.52.725.725,0,0,0,.429.873,1.257,1.257,0,0,0,.575.173.791.791,0,0,0,.379-.1,2.794,2.794,0,0,0,.267-.169l.11-.075A2.2,2.2,0,0,1,981.041,738.2Z" transform="translate(-253.805 -239.772)" fill="#fff" stroke="#fff" stroke-width="0.2"/>
    <path id="Path_104090" data-name="Path 104090" d="M983.121,740.3a.168.168,0,0,1-.074-.014c-.487-.294-.855-.529-1.192-.763a1.282,1.282,0,0,0-.727-.291,1.2,1.2,0,0,0-.731.315l-.186.146c-.125.1-.255.2-.386.294a.982.982,0,0,1-.568.194.906.906,0,0,1-.409-.1c-.59-.3-1.15-.628-1.572-.883a.609.609,0,0,1-.282-.7c.013-.067.022-.134.031-.2a2.12,2.12,0,0,1,.05-.277,1.325,1.325,0,0,0-.169-1.122,1.573,1.573,0,0,0-1.162-.636c-.633-.062-.849-.3-.857-.935,0-.107,0-.214-.008-.32-.006-.183-.011-.373-.007-.558.011-.462.031-.94.06-1.421a.578.578,0,0,1,.5-.554c.094-.025.189-.041.29-.058.07-.012.142-.024.214-.04a1.317,1.317,0,0,0,1.119-1.764c-.012-.049-.024-.1-.036-.147l-.013-.055a.788.788,0,0,1,.359-.987c.529-.326,1.085-.618,1.511-.836a.964.964,0,0,1,.441-.113,1.038,1.038,0,0,1,.6.211c.1.07.2.145.294.217s.206.155.311.229a1.137,1.137,0,0,0,.66.248,1.15,1.15,0,0,0,.63-.22c.138-.09.272-.189.4-.285.071-.052.142-.1.213-.156a1.077,1.077,0,0,1,.627-.222,1.028,1.028,0,0,1,.484.13c.45.24.923.505,1.486.835a.621.621,0,0,1,.337.567q-.015.1-.029.2c-.021.148-.042.3-.07.45a1.367,1.367,0,0,0,1.286,1.733c.708.077.911.3.9,1-.008.777-.029,1.536-.048,2.176a.577.577,0,0,1-.525.626c-.081.019-.166.034-.247.049a2.946,2.946,0,0,0-.444.1,1.358,1.358,0,0,0-.895,1.824c.161.489.094.7-.313.963-.531.349-1.11.716-1.771,1.121A.192.192,0,0,1,983.121,740.3Zm-2.08-2.1a1.3,1.3,0,0,1,.323.041,4.381,4.381,0,0,1,.97.41l.033.018a1.911,1.911,0,0,0,.841.338,1.857,1.857,0,0,0,.866-.38l.013-.006a.174.174,0,0,0,.091-.075l.021-.037a.4.4,0,0,0,.071-.2c0-.122-.009-.245-.016-.365-.01-.159-.02-.324-.015-.483a2.144,2.144,0,0,1,1.588-2.034.876.876,0,0,0,.755-.992c0-.133,0-.243-.006-.345a.8.8,0,0,0-.663-.8,2.607,2.607,0,0,1-.816-.4,2.353,2.353,0,0,1-.857-2.422c.007-.041.037-.251-.073-.328a1.844,1.844,0,0,0-1-.458,1.358,1.358,0,0,0-.774.309,2.626,2.626,0,0,1-.975.4,1.45,1.45,0,0,1-.285.028,2.29,2.29,0,0,1-1.256-.486,2.923,2.923,0,0,0-.412-.224c-.062-.029-.123-.059-.184-.09l-.025-.013-.029,0a1.408,1.408,0,0,0-.772.35,2.24,2.24,0,0,1-.3.2c-.082.042-.079.145-.076.235v.025c0,.093.006.186.01.277.007.163.015.331.008.494a2.124,2.124,0,0,1-1.625,2.085c-.562.169-.709.364-.72.95,0,.106,0,.2,0,.29a.808.808,0,0,0,.7.911,2.225,2.225,0,0,1,1.646,2.52.725.725,0,0,0,.429.873,1.257,1.257,0,0,0,.575.173.791.791,0,0,0,.379-.1,2.794,2.794,0,0,0,.267-.169l.11-.075A2.2,2.2,0,0,1,981.041,738.2Z" transform="translate(-253.805 -239.772)" fill="#fff" stroke="#fff" stroke-width="0.2"/>
    <path id="Path_104091" data-name="Path 104091" d="M985.017,742.091a.128.128,0,0,1-.027,0c-.482-.291-.846-.524-1.181-.756a1.373,1.373,0,0,0-.786-.309,1.289,1.289,0,0,0-.794.336l-.182.143-.005,0c-.124.1-.252.2-.381.29a.881.881,0,0,1-.508.175.8.8,0,0,1-.362-.09c-.587-.295-1.145-.625-1.565-.879a.507.507,0,0,1-.234-.591c.014-.07.023-.138.032-.2a2.077,2.077,0,0,1,.048-.264,1.427,1.427,0,0,0-.183-1.208,1.676,1.676,0,0,0-1.237-.681c-.578-.057-.756-.251-.764-.833,0-.107,0-.215-.008-.322-.005-.182-.011-.369-.007-.552.011-.461.031-.937.06-1.417a.474.474,0,0,1,.419-.46c.089-.023.182-.039.28-.056.072-.012.145-.025.219-.041a1.419,1.419,0,0,0,1.2-1.889c-.011-.046-.022-.091-.033-.137L979,732.28a.69.69,0,0,1,.312-.874c.527-.325,1.08-.615,1.5-.832a.861.861,0,0,1,.394-.1.937.937,0,0,1,.542.192c.1.069.2.144.292.215s.206.155.314.232a1.235,1.235,0,0,0,.72.267,1.248,1.248,0,0,0,.687-.237c.141-.091.275-.191.405-.288.071-.053.142-.105.213-.156a.976.976,0,0,1,.567-.2.927.927,0,0,1,.436.117c.45.24.921.5,1.482.833a.517.517,0,0,1,.286.469c-.01.066-.019.132-.028.2-.021.149-.042.3-.069.445a1.47,1.47,0,0,0,1.376,1.856c.659.072.818.248.811.9-.008.773-.029,1.532-.048,2.174a.475.475,0,0,1-.445.528c-.078.018-.161.033-.242.048a3.029,3.029,0,0,0-.459.108,1.456,1.456,0,0,0-.959,1.955c.147.445.1.6-.271.844-.529.348-1.106.713-1.765,1.117A.138.138,0,0,1,985.017,742.091Zm-2.08-1.894a1.189,1.189,0,0,1,.3.038,4.276,4.276,0,0,1,.946.4l.033.018a1.956,1.956,0,0,0,.891.351,1.894,1.894,0,0,0,.916-.393l0,0a.273.273,0,0,0,.14-.121l.016-.029a.507.507,0,0,0,.088-.261c0-.126-.009-.25-.016-.37-.01-.157-.02-.319-.014-.474a2.042,2.042,0,0,1,1.513-1.937.98.98,0,0,0,.829-1.09c0-.136,0-.248-.006-.353a.9.9,0,0,0-.735-.893,2.51,2.51,0,0,1-.784-.379,2.256,2.256,0,0,1-.819-2.322c.013-.073.041-.32-.116-.431a1.915,1.915,0,0,0-1.056-.477,1.452,1.452,0,0,0-.834.328,2.519,2.519,0,0,1-.935.379,1.347,1.347,0,0,1-.264.026,2.2,2.2,0,0,1-1.2-.467,2.993,2.993,0,0,0-.426-.232c-.061-.029-.121-.058-.181-.088l-.051-.026-.057,0a1.512,1.512,0,0,0-.828.37,2.156,2.156,0,0,1-.283.19.318.318,0,0,0-.131.331v.025c0,.092.006.186.01.277.007.162.015.328.008.487a2.027,2.027,0,0,1-1.551,1.99.913.913,0,0,0-.794,1.048c0,.107,0,.2,0,.3a.909.909,0,0,0,.776,1.007,2.125,2.125,0,0,1,1.573,2.4.823.823,0,0,0,.483.981,1.35,1.35,0,0,0,.623.185.893.893,0,0,0,.428-.11,2.855,2.855,0,0,0,.277-.175l.109-.074A2.112,2.112,0,0,1,982.937,740.2Z" transform="translate(-255.7 -241.669)" fill="#fff" stroke="#fff" stroke-width="0.2"/>
    <path id="Path_104092" data-name="Path 104092" d="M1050.93,796.526a2.333,2.333,0,0,1,1.791,3.769,2.368,2.368,0,0,1-2.239.875,2.22,2.22,0,0,1-2.024-1.461A2.364,2.364,0,0,1,1050.93,796.526Zm-.182,3.432a1.1,1.1,0,0,0,1.13-1.1,1.119,1.119,0,1,0-1.13,1.1Z" transform="translate(-323.419 -304.293)" fill="#fff" stroke="#fff" stroke-width="0.2"/>
    <path id="Path_104093" data-name="Path 104093" d="M1052.747,802.981a3.225,3.225,0,0,1-.339-.018,2.124,2.124,0,0,1-1.937-1.393,2.187,2.187,0,0,1,.222-2.037,2.519,2.519,0,0,1,2.125-1.007h.026a2.23,2.23,0,0,1,1.711,3.6A2.194,2.194,0,0,1,1052.747,802.981Zm-.088-3.427a1.173,1.173,0,0,0-1.209,1.185,1.223,1.223,0,0,0,2.446.016,1.173,1.173,0,0,0-.332-.841,1.256,1.256,0,0,0-.9-.36Z" transform="translate(-325.333 -306.188)" fill="#fff" stroke="#fff" stroke-width="0.2"/>
    <path id="Path_104094" data-name="Path 104094" d="M1052.747,802.981a3.225,3.225,0,0,1-.339-.018,2.124,2.124,0,0,1-1.937-1.393,2.187,2.187,0,0,1,.222-2.037,2.519,2.519,0,0,1,2.125-1.007h.026a2.23,2.23,0,0,1,1.711,3.6A2.194,2.194,0,0,1,1052.747,802.981Zm-.088-3.427a1.173,1.173,0,0,0-1.209,1.185,1.223,1.223,0,0,0,2.446.016,1.173,1.173,0,0,0-.332-.841,1.256,1.256,0,0,0-.9-.36Z" transform="translate(-325.333 -306.188)" fill="#fff" stroke="#fff" stroke-width="0.2"/>
    <path id="Path_104095" data-name="Path 104095" d="M1054.645,804.773a3.1,3.1,0,0,1-.328-.018,2.026,2.026,0,0,1-1.851-1.326,2.085,2.085,0,0,1,.209-1.942,2.418,2.418,0,0,1,2.04-.962h.023a2.126,2.126,0,0,1,1.632,3.433A2.1,2.1,0,0,1,1054.645,804.773Zm-.088-3.427a1.275,1.275,0,0,0-1.313,1.288,1.327,1.327,0,0,0,2.654.017,1.275,1.275,0,0,0-.362-.914,1.358,1.358,0,0,0-.971-.391Z" transform="translate(-327.232 -308.084)" fill="#fff" stroke="#fff" stroke-width="0.2"/>
  </g>
</svg>
