<svg id="no_data_found" xmlns="http://www.w3.org/2000/svg" width="127.389" height="124" viewBox="0 0 127.389 124">
  <path id="Path_526" data-name="Path 526" d="M124.517,82.933l-8.839-5.1A51.969,51.969,0,0,0,40.3,19.758l-12.89-7.443A3.615,3.615,0,1,0,23.8,18.567l9.743,5.627c7.1,4.4,2.276,12.052-6.424,6.892L4.445,18.526a2.982,2.982,0,1,0-2.982,5.159l21.023,12.15c8.141,4.666,3.984,13.547-4.436,7.763l-1.183-.682a3.623,3.623,0,0,0-4.929,1.323h0a3.623,3.623,0,0,0,1.323,4.929l2.2,1.265c7.788,3.409,4.436,9.858-1.331,5.521l-2.407-1.4A2.925,2.925,0,0,0,8.8,59.6l4.576,2.645c-.066,1.019-.1,2.046-.1,3.072a51.97,51.97,0,0,0,32.551,48.207H84.641a52.2,52.2,0,0,0,17.038-11.173l13.736,7.928a4.354,4.354,0,0,0,4.354-7.533l-12.323-7.122c-6.408-2.6-2.284-13.144,5.389-9.431l7.353,4.239a4.348,4.348,0,1,0,4.346-7.533Z" transform="translate(0.68 -2.038)" fill="#e8e8e8"/>
  <rect id="Rectangle_1071" data-name="Rectangle 1071" width="6.589" height="10.458" rx="3.294" transform="translate(0 38.112) rotate(-57.68)" fill="#e8e8e8"/>
  <path id="Path_527" data-name="Path 527" d="M118.864,59.2a3.862,3.862,0,0,0,.222-1.24,3.771,3.771,0,0,0-5.479-3.376,4.929,4.929,0,1,0-9.456,2.465h-.345a4.3,4.3,0,1,0,0,8.585,4.024,4.024,0,0,0,.55-.058h13.686a3.048,3.048,0,0,0,.55.058,3.212,3.212,0,0,0,.271-6.416Z" transform="translate(-17.072 -8.911)" fill="#fff"/>
  <path id="Path_527_-_Outline" data-name="Path 527 - Outline" d="M103.6,65.983a4.659,4.659,0,1,1,.022-9.318,5.291,5.291,0,1,1,10.247-2.615,4.133,4.133,0,0,1,5.562,3.895,4.23,4.23,0,0,1-.12.952,3.575,3.575,0,0,1-.688,7.083h-.052a3.418,3.418,0,0,1-.58-.057H104.374a4.4,4.4,0,0,1-.568.057C103.741,65.982,103.673,65.983,103.6,65.983Zm0-8.593a3.934,3.934,0,0,0,0,7.868c.057,0,.115,0,.173,0a3.688,3.688,0,0,0,.5-.052l.031-.005h13.753l.035.007a2.691,2.691,0,0,0,.485.051h.042a2.85,2.85,0,0,0,.2-5.692l-.337-.024v-.417l.021-.059a3.492,3.492,0,0,0,.2-1.124,3.408,3.408,0,0,0-4.953-3.049l-.461.234-.063-.513a4.566,4.566,0,1,0-8.76,2.283l.2.5h-.9C103.72,57.392,103.662,57.39,103.6,57.39Z" transform="translate(-17.06 -8.899)" fill="#d6d6d6"/>
  <rect id="Rectangle_1072" data-name="Rectangle 1072" width="46.44" height="58.582" rx="4.06" transform="translate(43.325 33.116)" fill="#fff"/>
  <path id="Rectangle_1072_-_Outline" data-name="Rectangle 1072 - Outline" d="M3.906-.6H42.495A4.511,4.511,0,0,1,47,3.906V54.637a4.511,4.511,0,0,1-4.506,4.506H3.906A4.511,4.511,0,0,1-.6,54.637V3.906A4.511,4.511,0,0,1,3.906-.6ZM42.495,57.982a3.349,3.349,0,0,0,3.345-3.345V3.906A3.349,3.349,0,0,0,42.495.56H3.906A3.349,3.349,0,0,0,.56,3.906V54.637a3.349,3.349,0,0,0,3.345,3.345Z" transform="translate(43.345 33.136)" fill="#b3b3b3"/>
  <path id="Line_13" data-name="Line 13" d="M31.842.467H-.017A.483.483,0,0,1-.5-.017.483.483,0,0,1-.017-.5H31.842a.483.483,0,0,1,.483.483A.483.483,0,0,1,31.842.467Z" transform="translate(50.628 42.958)" fill="#d6d6d6"/>
  <path id="Line_14" data-name="Line 14" d="M31.842.467H-.017A.483.483,0,0,1-.5-.017.483.483,0,0,1-.017-.5H31.842a.483.483,0,0,1,.483.483A.483.483,0,0,1,31.842.467Z" transform="translate(50.628 49.546)" fill="#d6d6d6"/>
  <path id="Line_15" data-name="Line 15" d="M31.842.467H-.017A.483.483,0,0,1-.5-.017.483.483,0,0,1-.017-.5H31.842a.483.483,0,0,1,.483.483A.483.483,0,0,1,31.842.467Z" transform="translate(50.628 56.135)" fill="#d6d6d6"/>
  <path id="Line_16" data-name="Line 16" d="M31.842.467H-.017A.483.483,0,0,1-.5-.017.483.483,0,0,1-.017-.5H31.842a.483.483,0,0,1,.483.483A.483.483,0,0,1,31.842.467Z" transform="translate(50.628 62.723)" fill="#d6d6d6"/>
  <path id="Line_17" data-name="Line 17" d="M16.627.467H-.017A.483.483,0,0,1-.5-.017.483.483,0,0,1-.017-.5H16.627a.483.483,0,0,1,.483.483A.483.483,0,0,1,16.627.467Z" transform="translate(50.628 69.32)" fill="#d6d6d6"/>
  <path id="Path_528" data-name="Path 528" d="M101.992,101.712l-6.907-6.8a9.408,9.408,0,0,0-1.031-13.029,9.7,9.7,0,0,0-13.228.34,9.407,9.407,0,0,0-.344,13.065A9.7,9.7,0,0,0,93.674,96.3l6.907,6.8a1.015,1.015,0,0,0,1.024.382,1,1,0,0,0,.774-.764.99.99,0,0,0-.386-1.011ZM87.627,96.458a7.587,7.587,0,0,1-7.032-4.6,7.424,7.424,0,0,1,1.618-8.175,7.654,7.654,0,0,1,8.268-1.644,7.477,7.477,0,0,1-2.868,14.418Z" transform="translate(-9.147 -9.406)" fill="#b3b4b4"/>
  <path id="Path_529" data-name="Path 529" d="M55.257,103.918a3.689,3.689,0,0,0,.23-1.24A3.763,3.763,0,0,0,50,99.3a4.929,4.929,0,0,0-9.8.674,5.044,5.044,0,0,0,.345,1.8H40.2a4.3,4.3,0,1,0,.559,8.536H54.443a3.048,3.048,0,0,0,.55.058,3.212,3.212,0,0,0,.263-6.416Z" transform="translate(-5.729 -16.92)" fill="#fff"/>
  <path id="Path_529_-_Outline" data-name="Path 529 - Outline" d="M55.018,110.718h-.041a3.423,3.423,0,0,1-.581-.057H40.773a4.659,4.659,0,1,1-.747-9.263,5.386,5.386,0,0,1-.2-1.432v-.008a5.292,5.292,0,0,1,4.928-5.2c.122-.008.245-.013.367-.013a5.292,5.292,0,0,1,5.135,4.03,4.125,4.125,0,0,1,5.583,3.894,4.045,4.045,0,0,1-.128.967,3.575,3.575,0,0,1-.691,7.082Zm-.587-.783h.035l.035.007a2.692,2.692,0,0,0,.485.051h.032a2.85,2.85,0,0,0,.2-5.692l-.337-.024v-.436l.023-.061a3.317,3.317,0,0,0,.207-1.119,3.4,3.4,0,0,0-4.959-3.05l-.448.231-.076-.5a4.539,4.539,0,0,0-4.51-3.874c-.105,0-.212,0-.317.011a4.594,4.594,0,0,0-4.253,4.484,4.664,4.664,0,0,0,.32,1.666l.193.494h-.887a3.934,3.934,0,1,0,.511,7.815l.029,0Z" transform="translate(-5.717 -16.907)" fill="#d6d6d6"/>
  <path id="Line_18" data-name="Line 18" d="M70.132.467H-.017A.483.483,0,0,1-.5-.017.483.483,0,0,1-.017-.5H70.132a.483.483,0,0,1,.483.483A.483.483,0,0,1,70.132.467Z" transform="translate(25.013 112.186)" fill="#b3b4b4"/>
  <path id="Line_19" data-name="Line 19" d="M9.209.467H-.017A.483.483,0,0,1-.5-.017.483.483,0,0,1-.017-.5H9.209a.483.483,0,0,1,.483.483A.483.483,0,0,1,9.209.467Z" transform="translate(100.256 112.186)" fill="#b3b4b4"/>
  <path id="Line_20" data-name="Line 20" d="M40.34.35H-.012A.363.363,0,0,1-.375-.012.363.363,0,0,1-.012-.375H40.34a.363.363,0,0,1,.363.363A.363.363,0,0,1,40.34.35Z" transform="translate(30.522 118.459)" fill="#b3b4b4"/>
  <path id="Line_21" data-name="Line 21" d="M17.338.35H-.012A.363.363,0,0,1-.375-.012.363.363,0,0,1-.012-.375h17.35a.363.363,0,0,1,.363.363A.363.363,0,0,1,17.338.35Z" transform="translate(86.861 118.459)" fill="#b3b4b4"/>
  <path id="Line_22" data-name="Line 22" d="M44.036.373H-.013A.387.387,0,0,1-.4-.013.387.387,0,0,1-.013-.4H44.036a.387.387,0,0,1,.387.387A.387.387,0,0,1,44.036.373Z" transform="translate(55.538 123.627)" fill="#cccccb"/>
  <path id="Line_23" data-name="Line 23" d="M11.948.373H-.013A.387.387,0,0,1-.4-.013.387.387,0,0,1-.013-.4H11.948a.387.387,0,0,1,.387.387A.387.387,0,0,1,11.948.373Z" transform="translate(37.596 123.627)" fill="#cccccb"/>
  <path id="Line_24" data-name="Line 24" d="M7,.35H-.012A.363.363,0,0,1-.375-.012.363.363,0,0,1-.012-.375H7a.363.363,0,0,1,.363.363A.363.363,0,0,1,7,.35Z" transform="translate(75.113 118.459)" fill="#b3b4b4"/>
  <path id="Ellipse_1" data-name="Ellipse 1" d="M2.3-.4A2.7,2.7,0,1,1-.4,2.3,2.706,2.706,0,0,1,2.3-.4Zm0,4.633A1.93,1.93,0,1,0,.373,2.3,1.932,1.932,0,0,0,2.3,4.233Z" transform="translate(58.429 0.4)" fill="#dfdfdf"/>
  <path id="Ellipse_2" data-name="Ellipse 2" d="M2.3-.4A2.7,2.7,0,1,1-.4,2.3,2.706,2.706,0,0,1,2.3-.4Zm0,4.633A1.93,1.93,0,1,0,.373,2.3,1.932,1.932,0,0,0,2.3,4.233Z" transform="translate(50.822 22.901)" fill="#fff"/>
  <path id="Ellipse_3" data-name="Ellipse 3" d="M2.3-.4A2.7,2.7,0,1,1-.4,2.3,2.706,2.706,0,0,1,2.3-.4Zm0,4.633A1.93,1.93,0,1,0,.373,2.3,1.932,1.932,0,0,0,2.3,4.233Z" transform="translate(120.421 44.638)" fill="#dfdfdf"/>
  <path id="Ellipse_4" data-name="Ellipse 4" d="M2.3-.4A2.7,2.7,0,1,1-.4,2.3,2.706,2.706,0,0,1,2.3-.4Zm0,4.633A1.93,1.93,0,1,0,.373,2.3,1.932,1.932,0,0,0,2.3,4.233Z" transform="translate(5.565 65.653)" fill="#dfdfdf"/>
  <path id="Ellipse_5" data-name="Ellipse 5" d="M1.605-.4A2.005,2.005,0,1,1-.4,1.605,2.007,2.007,0,0,1,1.605-.4Zm0,3.237A1.232,1.232,0,1,0,.373,1.605,1.233,1.233,0,0,0,1.605,2.837Z" transform="translate(120.642 68.889)" fill="#dfdfdf"/>
  <path id="Ellipse_6" data-name="Ellipse 6" d="M1.605-.4A2.005,2.005,0,1,1-.4,1.605,2.007,2.007,0,0,1,1.605-.4Zm0,3.237A1.232,1.232,0,1,0,.373,1.605,1.233,1.233,0,0,0,1.605,2.837Z" transform="translate(78.4 100.386)" fill="#fff"/>
  <path id="Line_25" data-name="Line 25" d="M-.017,5.56A.483.483,0,0,1-.5,5.077V-.017A.483.483,0,0,1-.017-.5a.483.483,0,0,1,.483.483V5.077A.483.483,0,0,1-.017,5.56Z" transform="translate(90.242 5.505)" fill="#dfdfdf"/>
  <path id="Line_26" data-name="Line 26" d="M5.077.467H-.017A.483.483,0,0,1-.5-.017.483.483,0,0,1-.017-.5H5.077a.483.483,0,0,1,.483.483A.483.483,0,0,1,5.077.467Z" transform="translate(87.695 8.052)" fill="#dfdfdf"/>
  <path id="Line_27" data-name="Line 27" d="M-.017,4.632A.483.483,0,0,1-.5,4.149V-.017A.483.483,0,0,1-.017-.5a.483.483,0,0,1,.483.483V4.149A.483.483,0,0,1-.017,4.632Z" transform="translate(29.754 62.658)" fill="#fff"/>
  <path id="Line_28" data-name="Line 28" d="M4.149.467H-.017A.483.483,0,0,1-.5-.017.483.483,0,0,1-.017-.5H4.149a.483.483,0,0,1,.483.483A.483.483,0,0,1,4.149.467Z" transform="translate(27.675 64.744)" fill="#fff"/>
  <path id="Line_29" data-name="Line 29" d="M-.017,5.092A.483.483,0,0,1-.5,4.609V-.017A.483.483,0,0,1-.017-.5a.483.483,0,0,1,.483.483V4.609A.483.483,0,0,1-.017,5.092Z" transform="translate(14.745 89.012)" fill="#dfdfdf"/>
  <path id="Line_30" data-name="Line 30" d="M4.609.467H-.017A.483.483,0,0,1-.5-.017.483.483,0,0,1-.017-.5H4.609a.483.483,0,0,1,.483.483A.483.483,0,0,1,4.609.467Z" transform="translate(12.428 91.32)" fill="#dfdfdf"/>
</svg>
