<svg xmlns="http://www.w3.org/2000/svg" width="21.233" height="19.706" viewBox="0 0 21.233 19.706">
  <g id="Group_50215" data-name="Group 50215" transform="translate(2405.365 -585.136)">
    <path id="Path_104244" data-name="Path 104244" d="M-2351.207,638.028a1.418,1.418,0,0,1,1.42,1.156,1.373,1.373,0,0,1-1.11,1.595,2.562,2.562,0,0,1-.4.028q-6.265,0-12.53,0a1.4,1.4,0,0,1-1.485-1.046,1.376,1.376,0,0,1,1.229-1.712l.171-.016v-.285c0-1.229-.01-2.457,0-3.686a6.342,6.342,0,0,1,4.961-6.189,6.314,6.314,0,0,1,7.691,5.634c.1,1.391.037,2.794.049,4.191C-2351.207,637.8-2351.207,637.909-2351.207,638.028Zm-11.888.825c-.284,0-.523,0-.762,0-.425,0-.69.228-.683.579s.263.554.676.556c.73,0,1.46,0,2.191,0h10.419c.416,0,.67-.212.678-.553s-.257-.579-.68-.582c-.247,0-.494,0-.765,0v-.346c0-1.425.009-2.849-.005-4.274a6.527,6.527,0,0,0-.116-1.273,5.52,5.52,0,0,0-6.292-4.363,5.479,5.479,0,0,0-4.624,5.047c-.073,1.608-.028,3.222-.035,4.833C-2363.1,638.593-2363.1,638.707-2363.1,638.853Z" transform="translate(-37.156 -39.538)" fill="#ff3d67"/>
    <path id="Path_104245" data-name="Path 104245" d="M-2291.119,820.641a2.911,2.911,0,0,1-2.93,2.9,2.9,2.9,0,0,1-2.892-2.9Zm-4.821.8a2.012,2.012,0,0,0,1.992,1.278,1.976,1.976,0,0,0,1.816-1.278Z" transform="translate(-100.683 -218.695)" fill="#ff3d67"/>
    <path id="Path_104246" data-name="Path 104246" d="M-2179.434,591.97a.406.406,0,0,1-.348.453.416.416,0,0,1-.458-.352,19.149,19.149,0,0,0-.7-2.2,8.093,8.093,0,0,0-3.495-3.811c-.085-.049-.172-.094-.255-.146a.4.4,0,0,1-.2-.561.4.4,0,0,1,.6-.138,13.328,13.328,0,0,1,1.281.816,9.23,9.23,0,0,1,3.555,5.831C-2179.44,591.9-2179.437,591.948-2179.434,591.97Z" transform="translate(-204.698 0)" fill="#ff3d67"/>
    <path id="Path_104247" data-name="Path 104247" d="M-2405.365,592.387c.22-.7.39-1.425.669-2.1a9.033,9.033,0,0,1,4.2-4.628.638.638,0,0,1,.472-.049c.315.123.287.516-.024.721a16.765,16.765,0,0,0-1.5,1.015,8.259,8.259,0,0,0-2.9,4.907c-.019.1-.032.194-.06.287a.4.4,0,0,1-.471.3.4.4,0,0,1-.322-.428Z" transform="translate(0 -0.415)" fill="#ff3d67"/>
    <path id="Path_104248" data-name="Path 104248" d="M-2382.332,611.554c.224-.661.4-1.345.681-1.98a7.373,7.373,0,0,1,3.332-3.549c.09-.049.225-.114.3-.08a.725.725,0,0,1,.353.3c.083.189-.041.342-.212.464a15.114,15.114,0,0,0-1.642,1.218,6.472,6.472,0,0,0-1.908,3.587,1.639,1.639,0,0,1-.035.183.4.4,0,0,1-.466.3.385.385,0,0,1-.327-.421Z" transform="translate(-21.389 -19.315)" fill="#ff3d67"/>
    <path id="Path_104249" data-name="Path 104249" d="M-2191.114,611.655a.4.4,0,0,1-.346.451.418.418,0,0,1-.459-.352,14.405,14.405,0,0,0-.523-1.7,6.541,6.541,0,0,0-2.878-3.152c-.386-.218-.488-.4-.356-.654s.372-.274.76-.049a7.58,7.58,0,0,1,3.785,5.316C-2191.121,611.568-2191.118,611.622-2191.114,611.655Z" transform="translate(-194.67 -19.416)" fill="#ff3d67"/>
    <path id="Path_104250" data-name="Path 104250" d="M-2269.679,607.154c-.212,0-.426.009-.638,0a.383.383,0,0,1-.39-.388.386.386,0,0,1,.369-.41c.443-.016.886-.015,1.329,0a.388.388,0,0,1,.377.4.392.392,0,0,1-.383.4.506.506,0,0,1-.053,0h-.612Z" transform="translate(-125.046 -19.693)" fill="#ff3d67"/>
  </g>
</svg>
