<svg xmlns="http://www.w3.org/2000/svg" width="22.916" height="27.5" viewBox="0 0 22.916 27.5">
  <path id="Notifications" d="M27.023,17.832l-.558-4.817A9.494,9.494,0,0,0,19.9,4.085v-1.2a2.884,2.884,0,0,0-5.768,0v1.2a9.495,9.495,0,0,0-6.565,8.93L7.01,17.83a3.134,3.134,0,0,0-1.2,2.48V20.5c0,2.353,2.3,2.353,3.169,2.353h3.182A4.808,4.808,0,0,0,16.826,27a4.808,4.808,0,0,0,4.667-4.148h3.562c.867,0,3.169,0,3.169-2.353V20.31A3.131,3.131,0,0,0,27.023,17.832Zm-10.2,6.8a2.356,2.356,0,0,1-2.1-1.4h4.209A2.355,2.355,0,0,1,16.827,24.632Zm9.03-4.188a5.491,5.491,0,0,1-.8.041H8.977a5.428,5.428,0,0,1-.8-.041v-.134a.8.8,0,0,1,.459-.718l.588-.283.705-6.087.008-.136A7.108,7.108,0,0,1,15.56,6.155l.942-.2V2.884a.516.516,0,0,1,1.033,0V5.957l.942.2A7.108,7.108,0,0,1,24.1,13.086l.713,6.224.587.283a.8.8,0,0,1,.459.717v.134Z" transform="translate(-5.558 0.25)" fill="#61346b" stroke="#61346b" stroke-width="0.5"/>
</svg>
