<svg xmlns="http://www.w3.org/2000/svg" width="16.82" height="22.18" viewBox="0 0 16.82 22.18">
  <path id="otp-icon" d="M2.295,0h7.763a2.3,2.3,0,0,1,2.3,2.295v3.4h-.659v-2.8H.661v16.08H11.7V17.19l.659-.542v3.237a2.3,2.3,0,0,1-2.295,2.295H2.3A2.3,2.3,0,0,1,0,19.889V2.295A2.3,2.3,0,0,1,2.295,0ZM6.571,9.388a.334.334,0,0,1,.666,0v.43L7.6,9.579a.33.33,0,1,1,.361.542l-.459.309.46.305a.332.332,0,0,1-.361.552l-.361-.238v.431a.334.334,0,0,1-.666,0v-.419l-.361.238a.33.33,0,1,1-.361-.551l.46-.307-.46-.307a.33.33,0,1,1,.361-.552l.361.238V9.388Zm6.992,0a.332.332,0,1,1,.664,0v.43l.361-.238a.33.33,0,0,1,.361.542l-.46.309.46.305a.332.332,0,1,1-.361.552l-.361-.238v.431a.332.332,0,1,1-.664,0v-.419L13.2,11.3a.332.332,0,1,1-.361-.551l.46-.307-.46-.307a.332.332,0,1,1,.361-.552l.361.238Zm-3.5,0a.332.332,0,0,1,.664,0v.43l.361-.238a.332.332,0,0,1,.361.542l-.46.309.46.305a.332.332,0,1,1-.361.552l-.361-.238v.431a.332.332,0,0,1-.664,0v-.419l-.361.238a.33.33,0,0,1-.361-.551l.46-.307-.46-.307a.332.332,0,1,1,.361-.552l.361.238ZM4.793,7.06H15.917a.917.917,0,0,1,.9.913v4.887a.95.95,0,0,1-.9.95H12.011a7,7,0,0,1-3.838,2.437.341.341,0,0,1-.339-.1.336.336,0,0,1,.027-.477,3.674,3.674,0,0,0,.495-.524,4.562,4.562,0,0,0,.623-1.372H4.793a.919.919,0,0,1-.913-.913V7.974a.915.915,0,0,1,.913-.913ZM6.178,19.678a.942.942,0,1,1-.668.278.941.941,0,0,1,.668-.278Z" fill="#3f4244" fill-rule="evenodd"/>
</svg>
