<svg xmlns="http://www.w3.org/2000/svg" width="280.568" height="69.665" viewBox="0 0 280.568 69.665">
  <g id="Group_10080" data-name="Group 10080" transform="translate(-245 -80.165)">
    <g id="Group_5" data-name="Group 5" transform="translate(245 80.165)">
      <g id="Group_4" data-name="Group 4" transform="translate(0 0)">
        <path id="Path_1" data-name="Path 1" d="M7.29,1.82H58.1V49.333L32.7,65.047,7.29,49.541Z" transform="translate(-0.96 -1.82)" fill="#740f78"/>
        <path id="Path_2" data-name="Path 2" d="M9.148,71.521a.416.416,0,0,1-.65.382l-1.89-.98c-.356-.182-.711-.5-1.058-.5s-.694.321-1.041.5L2.7,71.868a.494.494,0,0,1-.572,0,.494.494,0,0,1-.13-.538c.173-1,.347-1.995.512-2.992a.4.4,0,0,0-.1-.3L.216,65.928A.468.468,0,0,1,0,65.442.416.416,0,0,1,.38,65.13c1.015-.147,2.029-.3,3.044-.442A.434.434,0,0,0,3.8,64.41l1.309-2.654c.087-.182.191-.338.425-.347s.356.147.451.347c.434.867.867,1.734,1.309,2.662a.425.425,0,0,0,.373.269c.989.13,1.977.286,2.966.425a.444.444,0,0,1,.46.33.486.486,0,0,1-.208.486c-.72.7-1.44,1.4-2.168,2.1a.373.373,0,0,0-.121.382c.182.989.347,1.977.52,2.966a.688.688,0,0,1,.035.147Z" transform="translate(0.009 -9.734)" fill="#ed5135"/>
        <path id="Path_3" data-name="Path 3" d="M22.38,80.075a.416.416,0,0,1-.65.382l-1.89-.98c-.347-.182-.7-.5-1.058-.5s-.685.321-1.032.5l-1.821.919a.486.486,0,0,1-.564,0c-.191-.139-.165-.338-.13-.538.173-1,.347-1.995.512-2.992a.442.442,0,0,0-.113-.3c-.72-.711-1.448-1.422-2.185-2.125a.486.486,0,0,1-.2-.486.425.425,0,0,1,.39-.312c1.015-.147,2.021-.3,3.035-.442a.416.416,0,0,0,.373-.278l1.309-2.654c.1-.191.2-.338.425-.347s.356.147.451.347l1.309,2.654a.434.434,0,0,0,.382.278c.989.13,1.969.286,2.957.425a.434.434,0,0,1,.46.33.468.468,0,0,1-.2.486L21.964,76.58a.364.364,0,0,0-.113.382c.182.989.347,1.977.512,2.966A.538.538,0,0,1,22.38,80.075Z" transform="translate(-1.751 -10.864)" fill="#ed5135"/>
        <path id="Path_4" data-name="Path 4" d="M41.1,63.482a.538.538,0,0,1-.867.486c-.806-.408-1.613-.867-2.419-1.257-.451-.234-.867-.642-1.361-.642s-.867.408-1.327.642l-2.315,1.231a.616.616,0,0,1-.728,0c-.234-.173-.208-.425-.165-.685.217-1.275.451-2.558.659-3.842a.538.538,0,0,0-.139-.39c-.928-.919-1.873-1.821-2.81-2.732a.6.6,0,0,1-.251-.624.538.538,0,0,1,.538-.4c1.3-.191,2.6-.39,3.9-.564a.546.546,0,0,0,.477-.356c.555-1.136,1.127-2.272,1.682-3.408.121-.243.251-.442.546-.442a.629.629,0,0,1,.572.442c.564,1.136,1.136,2.272,1.734,3.408a.546.546,0,0,0,.477.356c1.275.165,2.541.364,3.807.546a.553.553,0,0,1,.59.425c.078.3-.087.451-.26.624L40.573,59a.451.451,0,0,0-.156.477c.234,1.275.442,2.55.668,3.816C41.094,63.369,41.1,63.447,41.1,63.482Z" transform="translate(-3.892 -8.285)" fill="#f4feeb"/>
        <path id="Path_5" data-name="Path 5" d="M69.828,70.14a.416.416,0,0,1-.659.373l-1.89-.971c-.347-.182-.7-.494-1.058-.5s-.685.321-1.032.5l-1.821.954a.486.486,0,0,1-.564,0c-.191-.139-.165-.338-.13-.538.173-1,.347-1.995.512-2.992a.408.408,0,0,0-.113-.3L60.9,64.538c-.139-.13-.269-.269-.208-.486a.425.425,0,0,1,.39-.312c1.015-.147,2.021-.3,3.035-.442a.416.416,0,0,0,.373-.269c.434-.867.867-1.778,1.318-2.662.087-.182.191-.338.416-.347s.356.156.451.347c.434.867.867,1.734,1.309,2.662a.425.425,0,0,0,.382.269l2.957.425a.441.441,0,0,1,.46.33.46.46,0,0,1-.2.486l-2.168,2.107a.338.338,0,0,0-.121.373c.182.989.347,1.977.52,2.966C69.819,70.045,69.819,70.105,69.828,70.14Z" transform="translate(-8.05 -9.549)" fill="#ed5135"/>
        <path id="Path_6" data-name="Path 6" d="M56.529,77.611a.416.416,0,0,1-.65.382l-1.89-.98c-.356-.182-.7-.5-1.058-.5s-.694.321-1.032.5l-1.821.945a.451.451,0,0,1-.7-.52c.173-1,.356-1.995.512-2.992a.4.4,0,0,0-.1-.3c-.72-.711-1.457-1.422-2.185-2.125-.139-.139-.26-.278-.2-.486a.434.434,0,0,1,.39-.321l3.035-.434A.425.425,0,0,0,51.2,70.5l1.309-2.654c.1-.191.191-.338.425-.347s.356.147.451.347l1.309,2.688a.425.425,0,0,0,.373.278c.989.13,1.977.286,2.966.425a.434.434,0,0,1,.46.33.486.486,0,0,1-.2.486l-2.177,2.1a.39.39,0,0,0-.121.382c.182.989.347,1.977.52,2.966a.508.508,0,0,1,.017.113Z" transform="translate(-6.285 -10.543)" fill="#ed5135"/>
        <path id="Path_7" data-name="Path 7" d="M19.147,19.064c0-.581.069-1.11.1-1.639l.078-1.457c0-.668.321-.98,1-.989s1.388,0,2.081.052a21.68,21.68,0,0,1,7.042,1.734,17.959,17.959,0,0,1,4.683,3.183l.468.425,1.561-1.327a18.315,18.315,0,0,1,9.418-3.859,29.874,29.874,0,0,1,3.3-.191c.754,0,1.032.3,1.075,1.049,0,1,.1,1.986.156,3.035l1.4-.356.7-.182c.434-.1.65.052.676.486.1,1.734.182,3.408.269,5.108l.7,12.54v.763c0,.486-.165.711-.642.772l-3.963.5-10.068,1.3-1.934.243a.529.529,0,0,0-.468.269,1.561,1.561,0,0,1-.572.486,3.113,3.113,0,0,1-3.087,0,1.136,1.136,0,0,1-.5-.408c-.165-.347-.434-.356-.737-.39l-15.74-1.986c-.581-.069-.763-.295-.728-.867l.52-9.713.442-8.429c0-.7.191-.806.867-.633ZM20.118,33.5c5.038.1,9.739,1.11,13.667,4.657V22.385a.867.867,0,0,0-.295-.694,17.682,17.682,0,0,0-12.2-5c-.217,0-.278.069-.286.278l-.286,5.342c-.182,3.261-.356,6.521-.538,9.782C20.162,32.558,20.144,33.017,20.118,33.5Zm29.06,0c-.3-5.619-.607-11.2-.911-16.771a4.024,4.024,0,0,0-.46,0c-1.075.13-2.151.217-3.209.4a16.26,16.26,0,0,0-8.819,4.587.867.867,0,0,0-.278.633V38.108a17.483,17.483,0,0,1,6.435-3.564,26.545,26.545,0,0,1,7.241-1.032ZM19.13,19.446l-.867.165c-.217,0-.278.139-.295.347q-.173,3.226-.356,6.452c-.173,3.087-.356,6.174-.529,9.262,0,.546-.061,1.1-.087,1.665,4.189-.815,8.334-1.37,12.488-.069a9.166,9.166,0,0,0-1.309-.59,22.66,22.66,0,0,0-8.724-1.388c-.867,0-1.145-.286-1.11-1.11.078-1.518.156-3.035.243-4.544.147-2.74.3-5.481.451-8.221C19.069,20.755,19.095,20.122,19.13,19.446ZM52.291,37.214v-.468q-.39-7.007-.815-14.022-.078-1.457-.182-2.914c0-.087-.069-.243-.13-.26-.33-.087-.668-.13-1.041-.191.069,1.327.139,2.6.2,3.842.2,3.66.408,7.31.6,10.97,0,.806-.278,1.119-1.093,1.093a23.51,23.51,0,0,0-7.891,1.1c-.5.165-.989.364-1.483.555v.087C44.417,35.9,48.345,36.451,52.291,37.214Z" transform="translate(-2.038 -3.567)" fill="#f4feeb"/>
        <path id="Path_8" data-name="Path 8" d="M35.334,40.636a2.359,2.359,0,0,1-1.093-.286l-.147-.087a1.622,1.622,0,0,0-1.353-.841L20.6,37.887a28.9,28.9,0,0,1,4.171-.338,16.8,16.8,0,0,1,5.09.728l.694-1.6a15.158,15.158,0,0,1,3.278,2.289l1.561,1.4v-.251l1.422-1.188a19.26,19.26,0,0,1,3.252-2.246l.356,1.509.963-.173a16.676,16.676,0,0,1,4.561-.59,29.164,29.164,0,0,1,4.518.4l-10.718,1.4-1.925.243a1.492,1.492,0,0,0-1.153.7.6.6,0,0,1-.208.156,2.341,2.341,0,0,1-1.127.3Zm0-18.671a1.63,1.63,0,0,0-.1-.26l.061.061.208-.182A1.639,1.639,0,0,0,35.334,21.966ZM20.947,16.06h.364a1.049,1.049,0,0,0-.382.373S20.947,16.086,20.947,16.06Z" transform="translate(-2.728 -3.711)" fill="#f4feeb"/>
        <path id="Path_9" data-name="Path 9" d="M24.182,19.609a14.57,14.57,0,0,1,9.14,3.885,2.67,2.67,0,0,1,.208.234.451.451,0,0,1-.043.624.442.442,0,0,1-.633,0c-.156-.121-.295-.286-.451-.425a13.008,13.008,0,0,0-6.729-3.113c-.529-.1-1.058-.147-1.587-.208a.493.493,0,0,1-.546-.512.551.551,0,0,1,.642-.486Z" transform="translate(-3.118 -4.181)" fill="#f4feeb"/>
        <path id="Path_10" data-name="Path 10" d="M24.182,19.609a14.57,14.57,0,0,1,9.14,3.885,2.67,2.67,0,0,1,.208.234.451.451,0,0,1-.043.624.442.442,0,0,1-.633,0c-.156-.121-.295-.286-.451-.425a13.008,13.008,0,0,0-6.729-3.113c-.529-.1-1.058-.147-1.587-.208a.493.493,0,0,1-.546-.512.551.551,0,0,1,.642-.486Z" transform="translate(-3.118 -4.181)" fill="#f4feeb"/>
        <path id="Path_11" data-name="Path 11" d="M24.214,27.518a15.609,15.609,0,0,1,8.871,3.642,1.326,1.326,0,0,1,.243.251.408.408,0,0,1-.052.59,1.205,1.205,0,0,1-.572.087s-.087-.061-.13-.1A14.543,14.543,0,0,0,23.9,28.446h-.139a.434.434,0,0,1-.434-.451.451.451,0,0,1,.442-.486,3.069,3.069,0,0,1,.442.009Z" transform="translate(-3.09 -5.231)" fill="#f4feeb"/>
        <path id="Path_12" data-name="Path 12" d="M24.214,27.518a15.609,15.609,0,0,1,8.871,3.642,1.326,1.326,0,0,1,.243.251.408.408,0,0,1-.052.59,1.205,1.205,0,0,1-.572.087s-.087-.061-.13-.1A14.543,14.543,0,0,0,23.9,28.446h-.139a.434.434,0,0,1-.434-.451.451.451,0,0,1,.442-.486,3.069,3.069,0,0,1,.442.009Z" transform="translate(-3.09 -5.231)" fill="#f4feeb"/>
        <path id="Path_13" data-name="Path 13" d="M24.063,23.55a15.774,15.774,0,0,1,8.958,3.608,2.966,2.966,0,0,1,.373.364.434.434,0,0,1,0,.624.451.451,0,0,1-.659.061l-.078-.069a14.5,14.5,0,0,0-8.672-3.625c-.382,0-.572-.208-.555-.52S23.673,23.532,24.063,23.55Z" transform="translate(-3.104 -4.706)" fill="#f4feeb"/>
        <path id="Path_14" data-name="Path 14" d="M24.063,23.55a15.774,15.774,0,0,1,8.958,3.608,2.966,2.966,0,0,1,.373.364.434.434,0,0,1,0,.624.451.451,0,0,1-.659.061l-.078-.069a14.5,14.5,0,0,0-8.672-3.625c-.382,0-.572-.208-.555-.52S23.673,23.532,24.063,23.55Z" transform="translate(-3.104 -4.706)" fill="#f4feeb"/>
        <path id="Path_15" data-name="Path 15" d="M23.816,31.88A15.687,15.687,0,0,1,32.9,35.141a1.63,1.63,0,0,1,.312.286.442.442,0,0,1,0,.624.451.451,0,0,1-.6.078.737.737,0,0,1-.165-.121,14.265,14.265,0,0,0-7.744-3.1l-1.058-.061c-.382,0-.59-.2-.581-.494s.225-.468.607-.46Z" transform="translate(-3.056 -5.812)" fill="#f4feeb"/>
        <path id="Path_16" data-name="Path 16" d="M23.816,31.88A15.687,15.687,0,0,1,32.9,35.141a1.63,1.63,0,0,1,.312.286.442.442,0,0,1,0,.624.451.451,0,0,1-.6.078.737.737,0,0,1-.165-.121,14.265,14.265,0,0,0-7.744-3.1l-1.058-.061c-.382,0-.59-.2-.581-.494s.225-.468.607-.46Z" transform="translate(-3.056 -5.812)" fill="#f4feeb"/>
        <path id="Path_17" data-name="Path 17" d="M50.012,20.293c0,.278-.208.408-.5.46-1.162.191-2.341.321-3.469.624a11.421,11.421,0,0,0-5.264,2.974.486.486,0,0,1-.728.069.494.494,0,0,1,.061-.754,12.383,12.383,0,0,1,5.775-3.243,35.034,35.034,0,0,1,3.555-.624.477.477,0,0,1,.572.494Z" transform="translate(-5.291 -4.206)" fill="#f4feeb"/>
        <path id="Path_18" data-name="Path 18" d="M50.012,20.293c0,.278-.208.408-.5.46-1.162.191-2.341.321-3.469.624a11.421,11.421,0,0,0-5.264,2.974.486.486,0,0,1-.728.069.494.494,0,0,1,.061-.754,12.383,12.383,0,0,1,5.775-3.243,35.034,35.034,0,0,1,3.555-.624.477.477,0,0,1,.572.494Z" transform="translate(-5.291 -4.206)" fill="#f4feeb"/>
        <path id="Path_19" data-name="Path 19" d="M50.189,24.231c0,.3-.2.46-.581.512a26.751,26.751,0,0,0-3.113.5,13.251,13.251,0,0,0-5.628,2.914c-.269.243-.546.251-.737.043a.5.5,0,0,1,.1-.763A14.881,14.881,0,0,1,45.87,24.4a14.283,14.283,0,0,1,3.72-.624C49.963,23.771,50.172,23.971,50.189,24.231Z" transform="translate(-5.304 -4.736)" fill="#f4feeb"/>
        <path id="Path_20" data-name="Path 20" d="M50.189,24.231c0,.3-.2.46-.581.512a26.751,26.751,0,0,0-3.113.5,13.251,13.251,0,0,0-5.628,2.914c-.269.243-.546.251-.737.043a.5.5,0,0,1,.1-.763A14.881,14.881,0,0,1,45.87,24.4a14.283,14.283,0,0,1,3.72-.624C49.963,23.771,50.172,23.971,50.189,24.231Z" transform="translate(-5.304 -4.736)" fill="#f4feeb"/>
        <path id="Path_21" data-name="Path 21" d="M49.276,27.85H49.9a.477.477,0,0,1,.5.468.5.5,0,0,1-.529.486,9.687,9.687,0,0,0-1.587.087,14.525,14.525,0,0,0-7.293,3c-.373.3-.754.243-.867-.139a.546.546,0,0,1,.251-.6,13.086,13.086,0,0,1,3.642-2.116,15.055,15.055,0,0,1,5.255-1.188Z" transform="translate(-5.319 -5.277)" fill="#f4feeb"/>
        <path id="Path_22" data-name="Path 22" d="M49.276,27.85H49.9a.477.477,0,0,1,.5.468.5.5,0,0,1-.529.486,9.687,9.687,0,0,0-1.587.087,14.525,14.525,0,0,0-7.293,3c-.373.3-.754.243-.867-.139a.546.546,0,0,1,.251-.6,13.086,13.086,0,0,1,3.642-2.116,15.055,15.055,0,0,1,5.255-1.188Z" transform="translate(-5.319 -5.277)" fill="#f4feeb"/>
        <path id="Path_23" data-name="Path 23" d="M50.584,32.587c0,.3-.208.451-.6.486-.945.087-1.9.113-2.827.286a13.433,13.433,0,0,0-6.07,2.7.5.5,0,0,1-.737,0c-.2-.234-.165-.512.13-.754A14.439,14.439,0,0,1,46.1,32.613a16.563,16.563,0,0,1,3.911-.5C50.367,32.1,50.584,32.275,50.584,32.587Z" transform="translate(-5.334 -5.843)" fill="#f4feeb"/>
        <path id="Path_24" data-name="Path 24" d="M50.584,32.587c0,.3-.208.451-.6.486-.945.087-1.9.113-2.827.286a13.433,13.433,0,0,0-6.07,2.7.5.5,0,0,1-.737,0c-.2-.234-.165-.512.13-.754A14.439,14.439,0,0,1,46.1,32.613a16.563,16.563,0,0,1,3.911-.5C50.367,32.1,50.584,32.275,50.584,32.587Z" transform="translate(-5.334 -5.843)" fill="#f4feeb"/>
      </g>
      <path id="Overview" d="M4.461-10.187v-4.225h2.31c1.648,0,2.373.791,2.373,2.123,0,1.29-.728,2.1-2.373,2.1Zm7.68-2.1c0-2.515-1.748-4.5-5.245-4.5H1.547V-2.257H4.461V-7.835H6.9C10.642-7.835,12.141-10.083,12.141-12.289Zm10.58-4.516H14.291V-2.257H22.72V-4.63H17.205V-8.48H22.1v-2.31H17.205v-3.642H22.72Zm10.431,4.537c0,1.311-.728,2.168-2.352,2.168H28.361v-4.267H30.8C32.419-14.37,33.151-13.558,33.151-12.268Zm-7.7-4.516V-2.257h2.914V-7.918h1.37l3.205,5.661h3.372l-3.476-5.89a4.2,4.2,0,0,0,3.309-4.183c0-2.435-1.748-4.454-5.245-4.454ZM38.874-2.257h2.914V-8.4h4.641v-2.31H41.788v-3.729h6.056v-2.352h-8.97ZM64.165-9.562a7.255,7.255,0,0,0-2.122-5.306,7.255,7.255,0,0,0-5.305-2.124,7.3,7.3,0,0,0-5.312,2.126,7.3,7.3,0,0,0-2.145,5.3A7.3,7.3,0,0,0,51.42-4.246a7.3,7.3,0,0,0,5.318,2.135,7.272,7.272,0,0,0,5.307-2.137A7.272,7.272,0,0,0,64.165-9.562Zm-11.881,0c0-2.955,1.811-4.808,4.454-4.808,2.622,0,4.433,1.852,4.433,4.808s-1.814,4.849-4.433,4.849c-2.647,0-4.457-1.894-4.457-4.849ZM74.12-12.268c0,1.311-.728,2.168-2.352,2.168H69.33v-4.267h2.435c1.623,0,2.352.808,2.352,2.1Zm-7.7-4.516V-2.257h2.914V-7.918H70.7l3.209,5.661h3.372L73.8-8.147a4.2,4.2,0,0,0,3.313-4.183c0-2.435-1.748-4.454-5.245-4.454ZM79.844-2.257h2.91v-9.452L86.67-2.257h2.206l3.892-9.452v9.452h2.914V-16.784H92.394l-4.62,10.8-4.62-10.8H79.844Zm28.666,0h3.08l-5.224-14.548h-3.392L97.746-2.257h3.059l.954-2.768h5.786Zm-1.752-5.1h-4.2l2.1-6.077Zm16.383-9.452v9.99l-6.6-9.99h-2.917V-2.257h2.914V-12.23l6.6,9.973h2.914V-16.805Zm5.165,7.267a7.163,7.163,0,0,0,2.081,5.3,7.163,7.163,0,0,0,5.291,2.108,6.821,6.821,0,0,0,6.827-4.7h-3.351a3.647,3.647,0,0,1-3.5,2.1c-2.539,0-4.35-1.873-4.35-4.808,0-2.955,1.811-4.808,4.35-4.808a3.663,3.663,0,0,1,3.5,2.081H142.5a6.846,6.846,0,0,0-6.827-4.7,7.18,7.18,0,0,0-5.293,2.121,7.18,7.18,0,0,0-2.078,5.309Zm25.211-7.264h-8.429V-2.257h8.429V-4.63H148V-8.48h4.891v-2.31H148v-3.642h5.515ZM8.249,9.044a7.2,7.2,0,0,0-7.409,7.43,7.19,7.19,0,0,0,7.43,7.409,7.1,7.1,0,0,0,7.1-5.661V15.683H7.5V17.91h5a3.944,3.944,0,0,1-4.121,3.351c-2.706,0-4.537-1.832-4.537-4.787,0-2.893,1.811-4.745,4.412-4.745A3.653,3.653,0,0,1,11.662,13.6h3.351C14.073,10.688,11.5,9.044,8.249,9.044Zm17.07,4.7c0,1.311-.728,2.168-2.352,2.168H20.532V11.649h2.435C24.59,11.646,25.318,12.457,25.318,13.748Zm-7.7-4.516V23.759h2.914V18.1h1.374l3.205,5.661h3.372l-3.476-5.89a4.2,4.2,0,0,0,3.309-4.183c0-2.435-1.748-4.454-5.245-4.454ZM40.911,23.759h3.08L38.767,9.211H35.374L30.15,23.759H33.21l.954-2.768H39.95Zm-1.748-5.1h-4.2l2.1-6.077Zm11.95-9.428H46.034V23.759h5.078c4.641,0,7.659-2.851,7.659-7.243C58.771,12.1,55.753,9.232,51.112,9.232ZM48.944,21.285v-9.6H51c3.059,0,4.787,1.811,4.787,4.829s-1.727,4.77-4.787,4.77Zm12.1,2.473h2.914V9.232H61.043ZM76.424,9.211V19.2l-6.591-9.99H66.919V23.759h2.914V13.786l6.591,9.973h2.914V9.211ZM89,9.044a7.2,7.2,0,0,0-7.406,7.43,7.19,7.19,0,0,0,7.43,7.409,7.1,7.1,0,0,0,7.1-5.661V15.683H88.252V17.91h5a3.944,3.944,0,0,1-4.121,3.351c-2.706,0-4.537-1.832-4.537-4.787,0-2.893,1.811-4.745,4.412-4.745A3.653,3.653,0,0,1,92.415,13.6h3.347C94.829,10.688,92.248,9.044,89,9.044Zm14.413,14.714h2.914V9.232h-2.914ZM118.795,9.211V19.2l-6.6-9.99h-2.914V23.759H112.2V13.786l6.6,9.973h2.914V9.211Zm10.951.021h-5.078V23.759h5.078c4.641,0,7.659-2.851,7.659-7.243,0-4.412-3.018-7.284-7.659-7.284Zm-2.168,12.054v-9.6h2.06c3.059,0,4.787,1.811,4.787,4.829s-1.727,4.77-4.787,4.77ZM148.1,9.214h-8.429V23.759H148.1V21.386H142.59v-3.85h4.891v-2.31H142.59V11.583h5.515Zm11.433,14.545h3.347l-4.641-7.222L162.8,9.232h-3.288L156.68,14.1l-3.143-4.87h-3.351l4.641,7.2-4.575,7.329h3.288l2.851-4.891Z" transform="translate(68.468 20.468)" fill="#7f2e83"/>
    </g>
    <path id="Path_104113" data-name="Path 104113" d="M.8-10.1a14.092,14.092,0,0,1,1.339-6.246A12.341,12.341,0,0,1,5.66-20.79H7.682v.219A12.853,12.853,0,0,0,2.819-10.1,12.956,12.956,0,0,0,7.682.408v.2H5.66A12.532,12.532,0,0,1,2.137-3.845,14.077,14.077,0,0,1,.8-10.1Zm9.761,2.349v4.99H8.483V-15.618h4.371A4.707,4.707,0,0,1,16.2-14.562a3.788,3.788,0,0,1,1.12,2.9A3.689,3.689,0,0,1,16.168-8.8a4.751,4.751,0,0,1-3.314,1.047Zm2.076-1.694q2.568,0,2.568-2.222a2.178,2.178,0,0,0-.61-1.666,2.794,2.794,0,0,0-1.958-.574H10.559v4.462Zm12.383-6.283A6.265,6.265,0,0,1,28.843-14.6a5.309,5.309,0,0,1,2.021,3.078H28.679A3.49,3.49,0,0,0,27.3-13.178a4.079,4.079,0,0,0-2.267-.619,4.164,4.164,0,0,0-2.158.565,3.891,3.891,0,0,0-1.493,1.6,5.241,5.241,0,0,0-.537,2.44,5.448,5.448,0,0,0,.546,2.531,3.8,3.8,0,0,0,1.539,1.612,4.638,4.638,0,0,0,2.3.555,4.062,4.062,0,0,0,2.75-.992,4.207,4.207,0,0,0,1.384-2.723H24.654v-1.53h6.465v1.985a6.155,6.155,0,0,1-1.011,2.577,5.775,5.775,0,0,1-2.094,1.848,6.247,6.247,0,0,1-2.977.692,6.465,6.465,0,0,1-3.314-.838A5.724,5.724,0,0,1,19.5-5.793a7.169,7.169,0,0,1-.783-3.4,7.169,7.169,0,0,1,.783-3.4A5.681,5.681,0,0,1,21.713-14.9,6.471,6.471,0,0,1,25.019-15.727Zm10.271.109V-2.761H33.214V-15.618Zm7.7,5.518a14.151,14.151,0,0,1-1.339,6.255A12.323,12.323,0,0,1,38.131.608H36.109v-.2A12.924,12.924,0,0,0,40.971-10.1a12.821,12.821,0,0,0-4.862-10.471v-.219h2.021a12.154,12.154,0,0,1,3.524,4.434A14.151,14.151,0,0,1,42.993-10.1Z" transform="translate(482.574 124.551)" fill="#363b46"/>
  </g>
</svg>
