<svg xmlns="http://www.w3.org/2000/svg" width="20.861" height="20.881" viewBox="0 0 20.861 20.881">
  <path id="Path_11693" data-name="Path 11693" d="M64.694-390.3H55.588l4.156-4.155a8.1,8.1,0,0,0-1.837-1.415,7.236,7.236,0,0,0-3.925-.941,7.723,7.723,0,0,0-4.853,1.938,7.694,7.694,0,0,0-2.312,3.506,7.567,7.567,0,0,0-.285,3.517,7.71,7.71,0,0,0,2.2,4.357,7.707,7.707,0,0,0,4.466,2.237,7.745,7.745,0,0,0,8.14-4.554c.011-.025.02-.05.031-.075.068-.163.092-.391.214-.47s.352-.034.534-.034c.719,0,1.438,0,2.188,0-.088.282-.156.55-.253.806A10.215,10.215,0,0,1,57.7-379.19,9.974,9.974,0,0,1,47.485-381.1a9.832,9.832,0,0,1-3.424-5.77,10.128,10.128,0,0,1,2.271-8.862,10.149,10.149,0,0,1,5.8-3.463c.436-.094.885-.128,1.328-.19.066-.009.132-.024.2-.037h1.222l.421.049a9.887,9.887,0,0,1,6.127,2.935c.045.046.094.089.142.134.038-.033.06-.05.079-.069q1.469-1.468,2.936-2.937a.649.649,0,0,0,.074-.113.883.883,0,0,1,.039.183Q64.695-394.772,64.694-390.3Z" transform="translate(-43.833 399.426)" fill="#3f4244"/>
</svg>
