<svg xmlns="http://www.w3.org/2000/svg" width="26.079" height="22.343" viewBox="0 0 26.079 22.343">
  <g id="Group_50027" data-name="Group 50027" transform="translate(-1312 -367.565)">
    <path id="user-comment-icon" d="M5.764,19.737l3.43-3.289a.774.774,0,0,1,.539-.217h3.394a3.128,3.128,0,0,0-1.51,1.559H10.043l-4.48,4.3a.78.78,0,0,1-1.36-.522V17.789H1.892A1.9,1.9,0,0,1,0,15.9v-14A1.909,1.909,0,0,1,1.892,0H19.637a1.9,1.9,0,0,1,1.892,1.893V6.706a3.77,3.77,0,0,0-1.56-.655V1.893a.34.34,0,0,0-.332-.333H1.892a.346.346,0,0,0-.332.333v14a.334.334,0,0,0,.1.234.33.33,0,0,0,.232.1H4.984a.78.78,0,0,1,.78.78v2.729ZM5.355,7.016a.78.78,0,1,1,0-1.56H15.988a.78.78,0,1,1,0,1.56H5.355Zm0,4.618a.78.78,0,1,1,0-1.56H12.6a.78.78,0,1,1,0,1.56H5.355Z" transform="translate(1312 367.565)" fill="#383876"/>
    <g id="Group_50026" data-name="Group 50026" transform="translate(1324.59 375.786)">
      <path id="Path_104149" data-name="Path 104149" d="M69.775,28.679a6.324,6.324,0,0,1,.979-3.457,6.686,6.686,0,0,1,2.677-2.449,4.269,4.269,0,0,1-1.219-3.888,4.119,4.119,0,0,1,1.615-2.6,4.278,4.278,0,0,1,5.568,6.474,6.7,6.7,0,0,1,3.661,5.915Zm1.014-.916H82.007a1.364,1.364,0,0,0-.014-.21,5.684,5.684,0,0,0-3.31-4.05.5.5,0,0,0-.373.018,4.272,4.272,0,0,1-3.752.017.584.584,0,0,0-.555.01,5.727,5.727,0,0,0-2.415,2.121A5.27,5.27,0,0,0,70.789,27.763Zm8.942-8.045a3.327,3.327,0,1,0-3.329,3.31A3.321,3.321,0,0,0,79.731,19.718Z" transform="translate(-69.775 -15.421)" fill="#383876" stroke="#383876" stroke-width="0.4"/>
    </g>
  </g>
</svg>
