<svg xmlns="http://www.w3.org/2000/svg" width="16.35" height="19.936" viewBox="0 0 16.35 19.936">
  <path id="_-Color" data-name="🎨-Color" d="M17.925,7.25a3.3,3.3,0,0,1,3.3,3.172l0,.127h4.159a.717.717,0,0,1,.073,1.43l-.073,0h-.626L23.78,24.931a2.438,2.438,0,0,1-2.431,2.255H14.5a2.438,2.438,0,0,1-2.431-2.255l-.978-12.948h-.625a.717.717,0,0,1-.713-.644l0-.073a.717.717,0,0,1,.644-.713l.073,0h4.159A3.3,3.3,0,0,1,17.925,7.25Zm5.394,4.733H12.531l.969,12.84a1,1,0,0,0,1,.928h6.847a1,1,0,0,0,1-.928ZM19.79,14.995a.717.717,0,0,1,.713.644l0,.073v6.311a.717.717,0,0,1-1.43.073l0-.073V15.712A.717.717,0,0,1,19.79,14.995Zm-3.729,0a.717.717,0,0,1,.713.644l0,.073v6.311a.717.717,0,0,1-1.43.073l0-.073V15.712A.717.717,0,0,1,16.061,14.995Zm1.864-6.311a1.865,1.865,0,0,0-1.862,1.759l0,.106H19.79A1.865,1.865,0,0,0,17.925,8.684Z" transform="translate(-9.75 -7.25)" fill="#383876"/>
</svg>
