<svg xmlns="http://www.w3.org/2000/svg" width="18.575" height="18.382" viewBox="0 0 18.575 18.382">
  <path id="Path_104260" data-name="Path 104260" d="M-1981.193-221a1.477,1.477,0,0,0-1.474,1.474v13a1.477,1.477,0,0,0,1.474,1.474h12.721l-.63-.61h-12.091a.855.855,0,0,1-.864-.864v-13a.855.855,0,0,1,.864-.864h13a.855.855,0,0,1,.864.864v12.145l.61.573v-12.717A1.477,1.477,0,0,0-1968.2-221h-13Zm2.611,2.18a.3.3,0,1,0,0,.61h7.776a.3.3,0,1,0,0-.61Zm4.236,1.828a4.736,4.736,0,0,0-3.532,1.514,4.753,4.753,0,0,0,.247,6.711,4.753,4.753,0,0,0,6.518-.052l.6.589a1.144,1.144,0,0,0-.11.216.645.645,0,0,0-.046.251.444.444,0,0,0,.134.308l5.086,4.724a.443.443,0,0,0,.317.111.646.646,0,0,0,.247-.064,1.321,1.321,0,0,0,.413-.312l.054-.059a1.32,1.32,0,0,0,.281-.435.643.643,0,0,0,.046-.251.443.443,0,0,0-.134-.307l-5.086-4.725a.442.442,0,0,0-.316-.111.647.647,0,0,0-.247.065,1.156,1.156,0,0,0-.227.139l-.6-.59a4.753,4.753,0,0,0-.467-6.455,4.731,4.731,0,0,0-3.179-1.267Zm-.206.609a4.126,4.126,0,0,1,2.969,1.105,4.134,4.134,0,0,1,.216,5.849,4.134,4.134,0,0,1-5.849.216,4.134,4.134,0,0,1-.216-5.849,4.125,4.125,0,0,1,2.879-1.321Zm-6.368.46a.3.3,0,1,0,0,.61h2.416a5.12,5.12,0,0,1,.346-.424q.093-.1.19-.185h-2.952Zm10.092,0a5.129,5.129,0,0,1,.536.61h1.824a.3.3,0,1,0,0-.61h-2.36Zm-.961,1.564a.305.305,0,0,0-.211.088l-3.5,3.375-1.261-1.675a.305.305,0,0,0-.426-.067.305.305,0,0,0-.067.426l.006.008,1.469,1.95a.3.3,0,0,0,.427.06.284.284,0,0,0,.028-.024l3.752-3.614a.3.3,0,0,0,.014-.431.3.3,0,0,0-.225-.1Zm-9.131,1.146a.3.3,0,1,0,0,.61h1.4a5.1,5.1,0,0,1,.08-.61Zm11.553,0a5.177,5.177,0,0,1,.079.61h.819a.3.3,0,1,0,0-.61Zm-11.553,2.711a.3.3,0,1,0,0,.61h1.969a5.161,5.161,0,0,1-.268-.61Zm11.34,0a5.142,5.142,0,0,1-.261.61h1.373a.3.3,0,1,0,0-.61Zm-.063,2.254,4.918,4.569a.777.777,0,0,1-.141.21l-.055.059a.776.776,0,0,1-.2.156l-4.918-4.569a.779.779,0,0,1,.141-.21l.054-.059A.776.776,0,0,1-1969.643-208.248Zm-11.277.457a.3.3,0,1,0,0,.61h5.73a5.131,5.131,0,0,1-1.743-.61Zm9.064,0a5.133,5.133,0,0,1-1.759.61h3a2.8,2.8,0,0,1-.3-.3.5.5,0,0,1-.069-.311h-.873Z" transform="translate(1982.667 221)" fill="#3eb546"/>
</svg>
