<svg xmlns="http://www.w3.org/2000/svg" width="33" height="33" viewBox="0 0 33 33">
  <g id="Group_50205" data-name="Group 50205" transform="translate(2290.855 -2062.796)">
    <rect id="Rectangle_28904" data-name="Rectangle 28904" width="33" height="33" transform="translate(-2290.855 2062.796)" fill="none"/>
    <g id="Group_50202" data-name="Group 50202" transform="translate(-2288.287 2063.427)">
      <path id="Path_104202" data-name="Path 104202" d="M851.3-103.661q0,5.993,0,11.987c0,.592.186.769.779.769q3.654,0,7.308.006t7.28-.007q2.048,0,4.1,0c.478,0,.686-.213.686-.7,0-2.731,0-5.463.008-8.194a1.059,1.059,0,0,1,.187-.554.562.562,0,0,1,.693-.2.648.648,0,0,1,.446.579c.007.073,0,.148,0,.221q0,4.069,0,8.139a1.927,1.927,0,0,1-2.055,2.064q-6.825,0-13.649,0-2.492,0-4.983.006a2.088,2.088,0,0,1-1.6-.622,1.84,1.84,0,0,1-.538-1.322q0-11.267,0-22.534c0-.6,0-1.2,0-1.8a1.919,1.919,0,0,1,1.907-1.961c.609-.013,1.218-.009,1.827-.006a.713.713,0,0,1,.746.659.728.728,0,0,1-.757.685c-.535,0-1.07,0-1.606,0-.6,0-.781.175-.781.766Q851.3-109.668,851.3-103.661Z" transform="translate(-849.965 121.281)" fill="#363b46"/>
      <path id="Path_104203" data-name="Path 104203" d="M961.572-71.737c.442-.293.851-.531,1.218-.821a2.633,2.633,0,0,0,.473-.6q2.739-4.006,5.473-8.016,1.418-2.078,2.836-4.157c.046-.067.083-.14.135-.228l-1.318-.887c-.243-.164-.472-.345-.446-.677a.9.9,0,0,1,.114-.387c.25-.409.513-.809.78-1.207a.692.692,0,0,1,1.069-.2c.649.455,1.3.907,1.949,1.362a.639.639,0,0,1,.28.724.608.608,0,0,1-.56.5.981.981,0,0,1-.539-.148c-.439-.271-.857-.575-1.285-.863a1.25,1.25,0,0,0-.168-.081l-.05.075a2.633,2.633,0,0,0,.209.175q.583.4,1.171.786a.726.726,0,0,1,.221,1.114q-3.1,4.527-6.205,9.054c-.995,1.453-1.979,2.913-2.981,4.36a1.951,1.951,0,0,1-.489.434c-.811.577-1.629,1.145-2.445,1.715a.633.633,0,0,1-.839.037.675.675,0,0,1-.245-.782c.259-1.1.511-2.207.773-3.309a.925.925,0,0,1,.151-.29q2.486-3.644,4.975-7.285,1.5-2.2,3.007-4.409c.2-.3.417-.58.841-.491a.673.673,0,0,1,.4,1.083q-1.515,2.213-3.033,4.424-2.472,3.6-4.938,7.21a2.241,2.241,0,0,0-.27.654C961.732-72.517,961.665-72.155,961.572-71.737Z" transform="translate(-946.294 96.132)" fill="#363b46"/>
      <path id="Path_104204" data-name="Path 104204" d="M902.626-138.467c-1.4,0-2.806,0-4.209,0a1.259,1.259,0,0,1-1.378-1.374q0-1.536,0-3.073a1.242,1.242,0,0,1,1.317-1.319c.554,0,1.108,0,1.661.01a.3.3,0,0,0,.341-.229A2.427,2.427,0,0,1,902.638-146a2.416,2.416,0,0,1,2.282,1.584.258.258,0,0,0,.286.189c.554,0,1.107,0,1.661,0a1.229,1.229,0,0,1,1.3,1.3q.007,1.606,0,3.211a1.177,1.177,0,0,1-1.253,1.247c-1.431,0-2.861,0-4.292,0Zm-4.187-1.368h8.42v-3.052h-.342c-.636,0-1.273.005-1.909,0-.555,0-.778-.209-.836-.765a1.1,1.1,0,0,0-1.117-1.007,1.062,1.062,0,0,0-1.077,1.037.728.728,0,0,1-.791.735c-.682,0-1.365,0-2.047,0-.1,0-.2.008-.3.013Z" transform="translate(-891.213 146)" fill="#363b46"/>
      <path id="Path_104205" data-name="Path 104205" d="M888.851-61.08h-4.435v-4.45h4.435Zm-1.34-3.1h-1.756v1.754h1.756Z" transform="translate(-880.153 75.487)" fill="#363b46"/>
      <path id="Path_104206" data-name="Path 104206" d="M884.347-7.785v-4.446h4.446v4.446Zm3.1-1.341v-1.761h-1.752v1.761Z" transform="translate(-880.093 28.783)" fill="#363b46"/>
      <path id="Path_104207" data-name="Path 104207" d="M888.783,45.481h-4.442v-4.45h4.442Zm-1.34-3.1h-1.749v1.742h1.749Z" transform="translate(-880.087 -17.888)" fill="#363b46"/>
      <path id="Path_104208" data-name="Path 104208" d="M939.747-62.206c-1.078,0-2.156,0-3.234,0a.673.673,0,0,1-.758-.659.692.692,0,0,1,.769-.688q3.235,0,6.47,0a.692.692,0,0,1,.727.7.65.65,0,0,1-.738.641h-3.234Z" transform="translate(-925.138 73.757)" fill="#363b46"/>
      <path id="Path_104209" data-name="Path 104209" d="M999.913-117.783c.3,0,.608-.007.912,0a1.94,1.94,0,0,1,1.88,1.906c.007.59,0,1.179,0,1.769a.666.666,0,0,1-.645.716.7.7,0,0,1-.69-.715c-.007-.553,0-1.106,0-1.658,0-.465-.212-.671-.678-.673-.59,0-1.18.006-1.769-.008a.7.7,0,0,1-.694-.685.683.683,0,0,1,.718-.649c.322,0,.645,0,.968,0Z" transform="translate(-979.881 121.277)" fill="#363b46"/>
      <path id="Path_104210" data-name="Path 104210" d="M939.158-42.784c.774,0,1.547,0,2.321,0,.48,0,.78.263.78.667a.7.7,0,0,1-.786.672c-1.17.006-2.34,0-3.51,0-.414,0-.829.011-1.244,0a.724.724,0,0,1-.688-.5.617.617,0,0,1,.284-.715,1.035,1.035,0,0,1,.494-.129c.783-.013,1.566-.006,2.349-.006Z" transform="translate(-925.359 55.565)" fill="#363b46"/>
      <path id="Path_104211" data-name="Path 104211" d="M938.138.057c.433,0,.867,0,1.3,0a.732.732,0,0,1,.763.676.719.719,0,0,1-.752.684c-.876,0-1.752.007-2.628,0a1.051,1.051,0,0,1-.475-.113A.626.626,0,0,1,936.036.6.719.719,0,0,1,936.7.062c.479-.011.959,0,1.438,0Z" transform="translate(-925.369 18.017)" fill="#363b46"/>
    </g>
  </g>
</svg>
