<svg xmlns="http://www.w3.org/2000/svg" width="35" height="35" viewBox="0 0 35 35">
  <g id="Group_50210" data-name="Group 50210" transform="translate(-1148.771 -492.324)">
    <rect id="Rectangle_28909" data-name="Rectangle 28909" width="35" height="35" transform="translate(1148.771 492.324)" fill="none"/>
    <g id="Group_50210-2" data-name="Group 50210" transform="translate(-1139.563 -471.351)">
      <path id="Path_104224" data-name="Path 104224" d="M2352.914,973.95a19.128,19.128,0,0,1-1.962-.011c-1.147-.132-1.579-1.038-.8-1.867,1.682-1.8,3.459-3.516,5.212-5.25a1.162,1.162,0,0,1,1.808.03c1.716,1.7,3.438,3.391,5.1,5.14a1.43,1.43,0,0,1,.3,1.239,1.672,1.672,0,0,1-1.082.7,10.459,10.459,0,0,1-1.863.115v1.8q0,8.9,0,17.793c0,2.05-.239,2.282-2.239,2.3-.787.006-1.575.008-2.362,0-1.875-.018-2.11-.237-2.112-2.075q-.008-8.9,0-17.793C2352.914,975.441,2352.914,974.82,2352.914,973.95Zm-1.027-1.384c2.334.29,2.333.29,2.332,2.865q0,8.582,0,17.164v1.879h4.088v-1.864q0-8.74,0-17.479c0-2.208,0-2.207,2.207-2.554.062-.01.1-.149.109-.157l-4.378-4.45Z" transform="translate(-40.922)" fill="#363b46"/>
      <path id="Path_104225" data-name="Path 104225" d="M2336.578,1008.475c0-2.521-.008-5.042,0-7.563.008-1.859.206-2.042,2.116-2.053,1.05-.006,2.1,0,3.151.006a1.307,1.307,0,0,1,1.42,1.357c.053.679.027,1.365.027,2.047q0,6.7,0,13.392c0,2.216-.26,2.473-2.411,2.485-.841,0-1.682.023-2.521-.005-1.43-.047-1.766-.367-1.779-1.788C2336.561,1013.727,2336.577,1011.1,2336.578,1008.475Zm1.331-8.218v16.469h3.98v-16.469Z" transform="translate(-31.897 -22.216)" fill="#363b46"/>
      <path id="Path_104226" data-name="Path 104226" d="M2319.843,1018.559c0,1.992.024,3.985-.008,5.976-.021,1.319-.374,1.667-1.693,1.711-1.1.037-2.2.035-3.3,0-1.212-.044-1.686-.431-1.7-1.586-.039-4.141-.025-8.283,0-12.424a1.376,1.376,0,0,1,1.581-1.525c1.206.021,2.411.016,3.617,0,1.063-.01,1.513.53,1.507,1.558C2319.834,1014.365,2319.842,1016.462,2319.843,1018.559Zm-5.305-6.458v12.774h3.943V1012.1Z" transform="translate(-15.843 -30.326)" fill="#363b46"/>
      <path id="Path_104227" data-name="Path 104227" d="M2296.7,1027.455c0,1.416.021,2.832-.005,4.247-.027,1.431-.363,1.782-1.752,1.826-1.1.035-2.2.04-3.3,0-1.2-.048-1.635-.449-1.65-1.622-.036-2.988-.011-5.978-.014-8.967a1.381,1.381,0,0,1,1.542-1.563c1.206-.012,2.414-.055,3.617,0,1.257.062,1.527.37,1.557,1.673C2296.731,1024.518,2296.7,1025.987,2296.7,1027.455Zm-5.306-4.72v9.393h3.9v-9.393Z" transform="translate(0 -37.61)" fill="#363b46"/>
    </g>
  </g>
</svg>
