<svg xmlns="http://www.w3.org/2000/svg" width="20.602" height="19.817" viewBox="0 0 20.602 19.817">
  <g id="noun-survey-5682549" transform="translate(-3.102 -2)">
    <g id="Group_50216" data-name="Group 50216" transform="translate(3.102 2)">
      <path id="Path_104251" data-name="Path 104251" d="M19.42,5.33l-.7.7a1.032,1.032,0,0,0-1.262.146L16.2,7.431V3.477A1.479,1.479,0,0,0,14.726,2H4.52c-.007,0-.013,0-.02,0a.289.289,0,0,0-.077.016c-.01,0-.02.006-.03.011a.3.3,0,0,0-.084.056l0,0h0L.791,5.546l-.024.027a.3.3,0,0,0-.049.077c0,.006,0,.013-.006.019A.293.293,0,0,0,.7,5.756c0,.005,0,.01,0,.016V20.343a1.477,1.477,0,0,0,1.477,1.474H14.726A1.477,1.477,0,0,0,16.2,20.343V12.765L20.13,8.839a1.021,1.021,0,0,0,.146-1.26l.7-.7A1.1,1.1,0,1,0,19.42,5.33ZM8.458,16.289l1.555,1.555-2.343.787ZM4.22,3.016V5.471h-2.5ZM15.6,20.343a.876.876,0,0,1-.877.874H2.169a.876.876,0,0,1-.877-.874V6.072H4.52a.3.3,0,0,0,.3-.3V2.6h9.905a.878.878,0,0,1,.877.877V8.031l-7.487,7.49h0a.3.3,0,0,0-.068.11s0,0,0,.007L6.908,19.013a.292.292,0,0,0,.16.366l.026.01a.3.3,0,0,0,.085.017l.014,0H7.2a.3.3,0,0,0,.09-.015l3.378-1.135.005,0a.3.3,0,0,0,.1-.064l.009-.005,4.82-4.82Zm4.1-11.928-4.014,4.014-5.122,5.122L8.752,15.734,17.886,6.6a.429.429,0,0,1,.6,0L19.7,7.809a.428.428,0,0,1,.126.3A.423.423,0,0,1,19.705,8.414Zm.843-1.956-.674.674-.7-.7.674-.674a.5.5,0,0,1,.7.7Z" transform="translate(-0.692 -2)" fill="#61346b"/>
      <path id="Path_104252" data-name="Path 104252" d="M49.707,21.035l-3.759,3.759a.3.3,0,1,0,.425.425l3.759-3.759a.3.3,0,0,0-.425-.425Z" transform="translate(-32.298 -15.258)" fill="#61346b"/>
      <path id="Path_104253" data-name="Path 104253" d="M18.26,11.465h8.059a.3.3,0,1,0,0-.6H18.26a.3.3,0,0,0,0,.6Z" transform="translate(-12.775 -8.203)" fill="#61346b"/>
      <path id="Path_104254" data-name="Path 104254" d="M17.994,32.866h4.524a.225.225,0,1,0,0-.45H17.994a.225.225,0,1,0,0,.45Z" transform="translate(-12.642 -23.283)" fill="#61346b"/>
      <path id="Path_104255" data-name="Path 104255" d="M17.994,22.216h3.067a.225.225,0,0,0,0-.45H17.994a.225.225,0,0,0,0,.45Z" transform="translate(-12.642 -15.831)" fill="#61346b"/>
      <path id="Path_104256" data-name="Path 104256" d="M20.007,41.9a.225.225,0,0,0-.225-.225H17.994a.225.225,0,0,0,0,.45h1.788A.225.225,0,0,0,20.007,41.9Z" transform="translate(-12.642 -29.764)" fill="#61346b"/>
      <path id="Path_104257" data-name="Path 104257" d="M8.473,19.421H6.889a.225.225,0,0,0-.225.225v1.584a.225.225,0,0,0,.225.225H8.473a.225.225,0,0,0,.225-.225V19.646A.225.225,0,0,0,8.473,19.421Zm-.225,1.584H7.114V19.871H8.248Z" transform="translate(-4.871 -14.19)" fill="#61346b"/>
      <path id="Path_104258" data-name="Path 104258" d="M8.473,29.229H6.889a.225.225,0,0,0-.225.225v1.584a.225.225,0,0,0,.225.225H8.473a.225.225,0,0,0,.225-.225V29.454A.225.225,0,0,0,8.473,29.229Zm-.225,1.585H7.114V29.68H8.248Z" transform="translate(-4.871 -21.053)" fill="#61346b"/>
      <path id="Path_104259" data-name="Path 104259" d="M8.473,39.039H6.889a.225.225,0,0,0-.225.225v1.584a.225.225,0,0,0,.225.225H8.473a.225.225,0,0,0,.225-.225V39.264A.225.225,0,0,0,8.473,39.039Zm-.225,1.584H7.114V39.489H8.248Z" transform="translate(-4.871 -27.918)" fill="#61346b"/>
    </g>
  </g>
</svg>
