<svg id="download-1" xmlns="http://www.w3.org/2000/svg" width="31.848" height="29.517" viewBox="0 0 31.848 29.517">
  <g id="Group_21" data-name="Group 21">
    <path id="Path_20" data-name="Path 20" d="M30.936,228.285a.909.909,0,0,0-.912.912v8.3a4.1,4.1,0,0,1-4.089,4.089H5.914A4.1,4.1,0,0,1,1.825,237.5v-8.435a.912.912,0,0,0-1.825,0V237.5a5.921,5.921,0,0,0,5.914,5.914h20.02a5.921,5.921,0,0,0,5.914-5.914v-8.3A.913.913,0,0,0,30.936,228.285Z" transform="translate(0 -213.895)" fill="#4d4d4d"/>
    <path id="Path_21" data-name="Path 21" d="M6.075,22.271a.918.918,0,0,0,.642.27.89.89,0,0,0,.642-.27l5.8-5.8a.913.913,0,0,0-1.291-1.291L7.629,19.425V.912A.912.912,0,1,0,5.8.912V19.425L1.56,15.181A.913.913,0,0,0,.269,16.472Z" transform="translate(22.634 22.541) rotate(180)" fill="#4d4d4d"/>
  </g>
</svg>
