<svg xmlns="http://www.w3.org/2000/svg" width="20.737" height="23.731" viewBox="0 0 20.737 23.731">
  <g id="Group_50116" data-name="Group 50116" transform="translate(-1191 -138)">
    <g id="Group_44648" data-name="Group 44648" transform="translate(1191 138)">
      <g id="excel-document-svgrepo-com">
        <path id="Path_19288" data-name="Path 19288" d="M1.92.006A1.882,1.882,0,0,0,.039,1.888V21.853A1.881,1.881,0,0,0,1.92,23.735H18.894a1.882,1.882,0,0,0,1.882-1.882V7.538L13.767.006H1.92Z" transform="translate(-0.039 -0.004)" fill="#fff" fill-rule="evenodd"/>
        <path id="Path_19290" data-name="Path 19290" d="M44.042,16.761v.371H39.295s-2.341-.467-2.272-2.487a2.174,2.174,0,0,0,2.226,2.116Z" transform="translate(-23.307 -9.214)" fill="#c9c9c9" fill-rule="evenodd"/>
        <path id="Path_19291" data-name="Path 19291" d="M37.049,0V5.4a2.143,2.143,0,0,0,2.264,2.147h4.747Z" transform="translate(-23.325)" fill="#fff" fill-rule="evenodd" opacity="0.5"/>
      </g>
    </g>
    <path id="Path_104155" data-name="Path 104155" d="M5.346-2.046a2.207,2.207,0,0,1-.34,1.114,2.054,2.054,0,0,1-.874.749A2.974,2.974,0,0,1,2.847.083,2.373,2.373,0,0,1,.971-.693,3.2,3.2,0,0,1,.286-2.885v-.3A3.658,3.658,0,0,1,.6-4.738a2.343,2.343,0,0,1,.89-1.029A2.484,2.484,0,0,1,2.831-6.13,2.6,2.6,0,0,1,4.6-5.551a2.288,2.288,0,0,1,.76,1.6H3.906a1.082,1.082,0,0,0-.278-.793,1.144,1.144,0,0,0-.8-.241.87.87,0,0,0-.8.407,2.614,2.614,0,0,0-.266,1.3v.427a2.893,2.893,0,0,0,.243,1.382.889.889,0,0,0,.836.415,1.119,1.119,0,0,0,.768-.237A1,1,0,0,0,3.9-2.046Zm3.806.44a.6.6,0,0,0-.226-.5,2.811,2.811,0,0,0-.795-.369,7.625,7.625,0,0,1-.93-.369A1.761,1.761,0,0,1,6.026-4.428a1.422,1.422,0,0,1,.293-.886,1.893,1.893,0,0,1,.828-.6,3.222,3.222,0,0,1,1.2-.214,2.819,2.819,0,0,1,1.168.232,1.85,1.85,0,0,1,.8.662,1.729,1.729,0,0,1,.286.982H9.156a.731.731,0,0,0-.226-.573.882.882,0,0,0-.612-.2.994.994,0,0,0-.616.172.528.528,0,0,0-.226.438.532.532,0,0,0,.249.421A3.14,3.14,0,0,0,8.6-3.6a5.365,5.365,0,0,1,1.029.434,1.73,1.73,0,0,1,.979,1.556,1.476,1.476,0,0,1-.6,1.245A2.658,2.658,0,0,1,8.371.083a3.253,3.253,0,0,1-1.33-.264,2.006,2.006,0,0,1-.9-.722,1.882,1.882,0,0,1-.3-1.056H7.3a.927.927,0,0,0,.251.716,1.187,1.187,0,0,0,.816.23.938.938,0,0,0,.571-.156A.514.514,0,0,0,9.152-1.606ZM13.7-1.644l1.2-4.4h1.627L14.5,0H12.9L10.886-6.043H12.5Z" transform="translate(1193.223 155)" fill="#45b058"/>
  </g>
</svg>
