<svg xmlns="http://www.w3.org/2000/svg" width="31.4" height="36.561" viewBox="0 0 31.4 36.561">
  <path id="timesheet-icon" d="M23.173,20.1a8.23,8.23,0,1,1-5.823,2.41,8.23,8.23,0,0,1,5.823-2.41Zm3.243,10.233a.913.913,0,0,0,.158-.021.643.643,0,0,0,.152-.048.912.912,0,0,0,.568-.806V29.4a.913.913,0,0,0-.69-.866,1.134,1.134,0,0,0-.176-.024h0c-.345,0-2.154-.03-2.526-.051l-.318-.018.1-3.062a1.166,1.166,0,0,0,0-.176,1.065,1.065,0,0,0-.048-.167.875.875,0,0,0-.08-.158.988.988,0,0,0-.11-.14h0a1.223,1.223,0,0,0-.134-.113.771.771,0,0,0-.155-.086,1.1,1.1,0,0,0-.167-.057,1.018,1.018,0,0,0-.17-.021h-.03a.893.893,0,0,0-.336.062.97.97,0,0,0-.3.187l-.021.021a1.375,1.375,0,0,0-.1.122,1.461,1.461,0,0,0-.083.149.916.916,0,0,0-.074.339l-.158,3.943a1.134,1.134,0,0,0,0,.176.845.845,0,0,0,.048.17.705.705,0,0,0,.077.158.812.812,0,0,0,.1.14h0a.684.684,0,0,0,.122.107h0a1.307,1.307,0,0,0,.14.08.973.973,0,0,0,.164.06h0a1.086,1.086,0,0,0,.164.024h0c.28,0,.571.033.869.054.512.036,2.47.071,2.94.06Zm.205-13.226v1.044A10.745,10.745,0,0,0,24.7,17.7v-.6h0V10.763H16.636a.973.973,0,0,1-.973-.973V1.928H1.94V31.243H12.833v.027h0v.1h0v.027h0v.024h0v.062h0V31.5h0v.027h0v.024h0v.045l.018.051h0v.027h0v.021h0l.024.077h0v.024h0v.021h0v.018h0v.021h0l.021.054h0v.018h0v.03h0l.018.051h0v.021c.036.092.071.184.11.277h0l.051.119h0l.051.119h0l.065.146h0c.054.119.11.235.167.351H1.735a1.744,1.744,0,0,1-1.226-.509A1.714,1.714,0,0,1,0,31.44V1.735A1.738,1.738,0,0,1,1.735,0h14.9a.958.958,0,0,1,.747.354l8.54,8.332a.964.964,0,0,1,.7.931v7.489ZM17.6,3.392l5.8,5.433H17.6ZM5.612,16.416a.69.69,0,0,1,.5-.238H17.505a.684.684,0,0,1,.515.235.836.836,0,0,1,0,1.095h0a.69.69,0,0,1-.512.238H6.124a.687.687,0,0,1-.515-.235.836.836,0,0,1,0-1.1Zm0-5.154a.687.687,0,0,1,.512-.235h6.734a.693.693,0,0,1,.509.226h0a.839.839,0,0,1,0,1.1.69.69,0,0,1-.512.238H6.124a.687.687,0,0,1-.515-.235.839.839,0,0,1,0-1.1Zm8.3,11.649H6.133a.69.69,0,0,1-.518-.235.83.83,0,0,1-.2-.553.812.812,0,0,1,.205-.547.7.7,0,0,1,.515-.238h8.9a10.712,10.712,0,0,0-1.125,1.574Zm-8.29,3.806a.7.7,0,0,1,.515-.238H12.6a10.527,10.527,0,0,0-.155,1.574H6.133a.69.69,0,0,1-.518-.235.827.827,0,0,1-.2-.55.815.815,0,0,1,.205-.55Zm22.317-3.136a6.713,6.713,0,1,0,1.97,4.761,6.713,6.713,0,0,0-1.97-4.761Z" fill="#383876" fill-rule="evenodd"/>
</svg>
